<?xml version="1.0" encoding="UTF-8"?>
<svg id="_图层_2" data-name="图层 2" xmlns="http://www.w3.org/2000/svg" viewBox="0 0 80 20.79">
  <defs>
    <style>
      .cls-1 {
        fill: #4d4d4d;
      }
    </style>
  </defs>
  <g id="_图层_1-2" data-name="图层 1">
    <g>
      <polygon class="cls-1" points="10 9.36 15.41 0 0 0 10.3 17.85 5.1 17.85 3.4 14.9 0 20.79 15.41 20.79 5.1 2.94 10.3 2.94 8.3 6.41 10 9.36"/>
      <polygon class="cls-1" points="65.1 8.91 66.1 8.91 66.1 3.52 65.1 2.95 65.1 8.91"/>
      <g>
        <polygon class="cls-1" points="70.26 8.91 71.25 8.91 71.25 6 70.26 5.43 70.26 8.91"/>
        <polygon class="cls-1" points="68.77 2.95 69.35 3.94 72.74 3.94 72.74 2.95 68.77 2.95"/>
      </g>
      <g>
        <rect class="cls-1" x="51.2" y="5.43" width="3.97" height=".99"/>
        <polygon class="cls-1" points="51.2 2.95 51.78 3.94 55.17 3.94 55.17 2.95 51.2 2.95"/>
        <polygon class="cls-1" points="51.2 8.91 55.17 8.91 55.17 7.91 51.78 7.91 51.2 8.91"/>
      </g>
      <g>
        <polygon class="cls-1" points="25.61 8.91 26.6 8.91 26.6 3.52 25.61 2.95 25.61 8.91"/>
        <rect class="cls-1" x="31.36" y="3.52" width=".99" height="5.38"/>
        <polygon class="cls-1" points="34.24 8.91 35.23 8.91 35.23 2.95 34.24 3.52 34.24 8.91"/>
        <polygon class="cls-1" points="28.49 8.91 29.48 8.91 29.48 3.52 28.49 2.95 28.49 8.91"/>
      </g>
      <g>
        <polygon class="cls-1" points="46.54 3.52 45.55 2.94 45.55 6.92 46.54 6.92 46.54 3.52"/>
        <rect class="cls-1" x="45.55" y="7.91" width="2.98" height=".99"/>
      </g>
      <g>
        <rect class="cls-1" x="37.9" y="7.91" width=".99" height=".99"/>
        <path class="cls-1" d="M40.88,2.95h0s-2.98,0-2.98,0l.58,1h2.4c.55,0,.99.44.99.99s-.44.99-.99.99h0s-2.98,0-2.98,0v1h2.98c1.1,0,1.99-.89,1.99-1.99s-.89-1.99-1.99-1.99Z"/>
      </g>
      <g>
        <polygon class="cls-1" points="60.42 5.43 60.14 4.94 58.99 2.95 58.99 2.94 57.84 2.94 59.57 5.92 57.84 8.91 58.99 8.91 60.14 6.92 60.71 5.92 60.42 5.43"/>
        <polygon class="cls-1" points="60.71 7.91 61.28 8.91 62.43 8.91 61.28 6.92 60.71 7.91"/>
        <polygon class="cls-1" points="62.43 2.94 61.29 2.94 60.71 3.94 61.28 4.93 62.43 2.94"/>
      </g>
      <g>
        <rect class="cls-1" x="77.21" y="7.91" width=".99" height=".99"/>
        <polygon class="cls-1" points="76.56 2.94 75.41 2.94 77.14 5.92 77.13 5.93 78.28 5.93 77.71 4.94 76.56 2.94"/>
        <polygon class="cls-1" points="78.86 2.94 78.28 3.94 78.85 4.94 80 2.94 78.86 2.94"/>
      </g>
      <polygon class="cls-1" points="22.94 2.94 18.35 2.94 21.22 7.91 20.07 7.91 19.5 6.95 18.35 8.91 22.94 8.91 20.07 3.94 22.36 3.94 22.94 2.94"/>
      <g>
        <polygon class="cls-1" points="52.35 17.84 53.34 17.84 53.34 14.94 52.35 14.37 52.35 17.84"/>
        <polygon class="cls-1" points="51.43 12.88 54.83 12.88 54.83 11.88 50.86 11.88 51.43 12.88"/>
        <path class="cls-1" d="M30.16,11.88c-1.65,0-2.98,1.33-2.98,2.98s1.34,2.98,2.98,2.98,2.98-1.33,2.98-2.98-1.34-2.98-2.98-2.98ZM30.16,16.85c-1.1,0-1.99-.89-1.99-1.99s.89-1.99,1.99-1.99,1.99.89,1.99,1.99-.89,1.99-1.99,1.99Z"/>
        <polygon class="cls-1" points="57.34 17.84 58.33 17.84 58.33 12.45 57.34 11.88 57.34 17.84"/>
        <path class="cls-1" d="M39.73,12.95c-.09-.22-.22-.39-.37-.55-.16-.16-.34-.28-.56-.38-.22-.09-.44-.13-.67-.13h-2.47l.58,1h1.89c.1,0,.19.01.28.05.1.04.18.09.25.16.07.07.12.15.16.24.04.09.06.19.06.28,0,.1-.02.2-.06.29-.04.09-.09.17-.16.24-.07.07-.15.13-.25.16-.09.04-.19.06-.28.06h-2.47v.99h2.47c.1,0,.2.02.3.06.09.04.16.1.23.16.07.07.12.15.16.24s.06.19.06.28-.02.19-.06.28c-.04.09-.09.17-.16.24-.07.07-.15.13-.25.16-.09.04-.19.05-.28.05h-1.89l-.58,1h2.47c.24,0,.46-.04.67-.13.22-.1.4-.22.56-.38.16-.16.28-.34.37-.55.09-.21.13-.43.13-.67,0-.49-.17-.91-.52-1.24.35-.34.52-.76.52-1.24,0-.24-.04-.46-.13-.67Z"/>
        <path class="cls-1" d="M60.85,14.86c0,1.65,1.33,2.98,2.98,2.98.41,0,.8-.08,1.16-.23l-.5-.87c-.21.07-.43.11-.66.11-1.1,0-1.99-.89-1.99-1.99s.89-1.99,1.99-1.99c.55,0,1.05.22,1.41.59l.7-.7c-.54-.55-1.28-.88-2.11-.88-1.65,0-2.98,1.33-2.98,2.98Z"/>
        <path class="cls-1" d="M45.36,11.88c-1.65,0-2.98,1.33-2.98,2.98s1.34,2.98,2.98,2.98,2.98-1.33,2.98-2.98-1.34-2.98-2.98-2.98ZM45.36,16.85c-1.1,0-1.99-.89-1.99-1.99s.89-1.99,1.99-1.99,1.99.89,1.99,1.99-.89,1.99-1.99,1.99Z"/>
        <polygon class="cls-1" points="21.79 14.86 23.51 17.85 24.66 17.85 22.36 13.87 21.79 14.86"/>
        <polygon class="cls-1" points="22.65 13.38 23.22 14.37 24.65 11.89 20.07 11.88 20.64 12.88 22.94 12.88 22.65 13.38"/>
        <polygon class="cls-1" points="72.46 12.89 73.04 11.89 68.46 11.89 71.32 16.85 70.17 16.85 69.6 15.86 68.46 17.85 73.04 17.85 70.18 12.89 72.46 12.89"/>
      </g>
    </g>
  </g>
</svg>