<?xml version="1.0" encoding="UTF-8"?>
<svg width="75px" height="75px" viewBox="0 0 75 75" version="1.1" xmlns="http://www.w3.org/2000/svg" xmlns:xlink="http://www.w3.org/1999/xlink">
    <!-- Generator: Sketch 48.2 (47327) - http://www.bohemiancoding.com/sketch -->
    <title>logo</title>
    <desc>Created with Sketch.</desc>
    <defs>
        <polygon id="path-1" points="37.3735191 0 74.7469685 0 74.7469685 74.7469685 37.3735191 74.7469685 6.96967425e-05 74.7469685 6.96967425e-05 0 37.3735191 0"></polygon>
        <polygon id="path-3" points="4.87877198 69.953575 70.3619979 69.953575 70.3619979 4.53028826 4.87877198 4.53028826"></polygon>
    </defs>
    <g id="Desktop-HD-Copy-4" stroke="none" stroke-width="1" fill="none" fill-rule="evenodd" transform="translate(-698.000000, -19.000000)">
        <g id="Header-Copy-5" transform="translate(5.000000, 0.000000)">
            <g id="logo" transform="translate(693.000000, 19.000000)">
                <path d="M73.0107529,37.3727873 C73.0107529,57.0237838 57.0226687,73.0122166 37.3720206,73.0122166 C17.723115,73.0122166 1.73642464,57.0237838 1.73642464,37.3727873 C1.73642464,17.7228362 17.723115,1.73614586 37.3720206,1.73614586 C57.0226687,1.73614586 73.0107529,17.7228362 73.0107529,37.3727873 M37.3720206,1.39323788 C17.5345853,1.39323788 1.39316819,17.534655 1.39316819,37.3727873 C1.39316819,57.2137075 17.5345853,73.3551245 37.3720206,73.3551245 C57.2125923,73.3551245 73.3519185,57.2137075 73.3519185,37.3727873 C73.3519185,17.534655 57.2125923,1.39323788 37.3720206,1.39323788" id="Fill-4" fill="#C8171E"></path>
                <mask id="mask-2" fill="white">
                    <use xlink:href="#path-1"></use>
                </mask>
                <g id="Clip-2"></g>
                <path d="M73.8333139,37.3727873 C73.8333139,57.4782066 57.4779278,73.8342896 37.37216,73.8342896 C17.2691801,73.8342896 0.914142475,57.4782066 0.914142475,37.3727873 C0.914142475,17.2698073 17.2691801,0.91233036 37.37216,0.91233036 C57.4779278,0.91233036 73.8333139,17.2698073 73.8333139,37.3727873 M37.37216,0 C16.7652726,0 6.96967425e-05,16.7658999 6.96967425e-05,37.3727873 C6.96967425e-05,57.9807201 16.7652726,74.7469685 37.37216,74.7469685 C57.9811383,74.7469685 74.7470382,57.9807201 74.7470382,37.3727873 C74.7470382,16.7658999 57.9811383,0 37.37216,0" id="Fill-1" fill="#C8171E" mask="url(#mask-2)"></path>
                <path d="M26.2870325,5.346925 C26.2354569,6.69032971 27.4819831,5.98499867 28.276526,5.92471099 C28.553919,5.90240803 31.0643957,4.92282032 30.7106847,5.95363514 C30.4935794,6.59519365 29.6715063,6.38366404 29.1606292,6.44186082 C28.553919,6.51225453 27.8660122,6.73354169 27.3094837,6.98828328 C26.7648037,7.23849459 27.1711357,7.5890692 27.6053464,7.47825138 C28.0074966,7.37823656 28.3852529,7.34164577 28.7989031,7.36464569 C29.7889453,7.42319096 30.8316086,7.70929608 31.6456665,8.28708208 C32.0593167,8.57945991 33.2420704,9.75315306 32.4973607,10.1061671 C32.0471198,10.3201361 31.4264703,9.69251689 31.1044713,9.41163902 C30.5873215,8.96104958 30.2423226,8.55959634 29.559643,8.34388492 C28.329844,7.95741649 27.0732118,8.19543086 26.0971089,9.04224628 C25.2091724,9.81309226 24.5561139,10.6874379 24.3473722,11.8492826 C24.2626906,12.3294931 24.0560398,14.0558815 23.2628908,13.4836712 C22.3871513,12.8529157 23.6354199,10.7993012 23.8647222,10.4337417 C23.9783279,10.2521817 24.1975242,10.0078947 24.4320537,9.75419851 C24.5832956,9.59075965 24.9251581,9.18895793 25.185127,8.8899589 C25.3266114,8.72791398 25.7921856,8.28708208 25.9765335,8.14071892 C26.2521841,7.92326508 26.3664868,7.53679665 25.8563066,7.56084202 C25.3729597,7.58175104 25.1593392,7.86750769 24.5717957,8.11632506 C23.9835552,8.36409698 22.4735752,9.75419851 22.1867731,8.93003453 C21.8337591,7.91106815 24.0898427,7.50090282 24.7010831,7.25766119 C24.843613,7.20225228 25.0349305,7.13499493 25.185127,7.07819208 C25.3043084,7.03323768 25.4628685,6.9279956 25.4830806,6.90046539 C25.6092317,6.73354169 25.7008829,6.49378489 25.6507012,6.37286105 C25.5248986,6.07107415 25.3029145,5.69540871 25.3029145,5.38177337 C25.548944,5.15595592 26.0235788,5.13818325 26.2870325,5.346925 Z" id="Fill-1" fill="#C8171E" mask="url(#mask-2)"></path>
                <path d="M24.2934617,46.6061769 L21.6526522,45.1923785 L20.7748217,46.7239644 C21.4076681,47.1539933 21.7146823,47.8080972 21.7990153,48.5636099 L26.5108636,51.0845411 L27.9521922,48.5643069 L25.5936545,47.3031443 L32.8849792,33.7258704 C32.9198275,33.6680221 32.9058882,33.6129616 32.8386308,33.573583 L31.7231345,32.9804637 C31.6457711,32.9445699 31.5959379,32.9637365 31.5645744,33.0215848 L24.2934617,46.6061769 Z" id="Fill-3" fill="#C8171E" mask="url(#mask-2)"></path>
                <path d="M28.8870346,48.2839169 L28.8856407,48.2860078 C28.7242927,48.2860078 28.5901265,48.4187801 28.5901265,48.580825 L28.5901265,52.4876759 C28.5901265,52.7002509 28.7661108,52.8758867 28.9786858,52.8758867 L47.5079133,52.8758867 C47.7194429,52.8758867 47.8957757,52.7002509 47.8957757,52.4876759 L47.8957757,48.6731732 C47.8957757,48.4595527 47.7194429,48.2839169 47.5079133,48.2839169 L28.8870346,48.2839169 Z M28.6507627,47.6646613 L47.8093517,47.6646613 C48.1989565,47.6646613 48.5185161,47.9859633 48.5185161,48.3773105 L48.5185161,52.7804022 C48.5185161,53.1752342 48.1989565,53.4944453 47.8093517,53.4944453 L28.6507627,53.4944453 C28.2608094,53.4944453 27.9422953,53.1752342 27.9422953,52.7804022 L27.9422953,48.3773105 C27.9422953,47.9859633 28.2608094,47.6646613 28.6507627,47.6646613 Z" id="Fill-5" fill="#C8171E" mask="url(#mask-2)"></path>
                <mask id="mask-4" fill="white">
                    <use xlink:href="#path-3"></use>
                </mask>
                <g id="Clip-8"></g>
                <polygon id="Fill-7" fill="#C8171E" mask="url(#mask-4)" points="27.3678199 27.2754717 33.8747078 27.2754717 33.8747078 25.856446 27.3678199 25.856446"></polygon>
                <polygon id="Fill-9" fill="#C8171E" mask="url(#mask-4)" points="27.3678199 29.4371162 33.8747078 29.4371162 33.8747078 28.0166966 27.3678199 28.0166966"></polygon>
                <polygon id="Fill-10" fill="#C8171E" mask="url(#mask-4)" points="27.3678199 31.5994576 33.8747078 31.5994576 33.8747078 30.179038 27.3678199 30.179038"></polygon>
                <path d="M40.5353815,37.7130468 C40.3353519,37.7130468 40.171216,37.8750917 40.171216,38.0758183 L40.171216,38.447302 C40.171216,38.6462862 40.3402306,38.8114674 40.5353815,38.8114674 L43.5023718,38.8114674 C43.7010076,38.8114674 43.8665373,38.6462862 43.8665373,38.447302 L43.8665373,38.0758183 C43.8665373,37.8771826 43.7024015,37.7130468 43.5023718,37.7130468 L40.5353815,37.7130468 Z M34.7923699,39.8224187 C34.5902494,39.8224187 34.4282044,39.9855091 34.4282044,40.1858872 L34.4282044,40.5559769 C34.4282044,40.7560065 34.5940827,40.9222333 34.7923699,40.9222333 L41.4058938,40.9222333 C41.6045295,40.9222333 41.7700593,40.7560065 41.7700593,40.5559769 L41.7700593,40.1858872 C41.7700593,39.986903 41.6045295,39.8224187 41.4058938,39.8224187 L34.7923699,39.8224187 Z M34.5195072,42.0663053 C34.3180836,42.0663053 34.1525538,42.232532 34.1525538,42.4318647 L34.1525538,42.800909 C34.1525538,43.0030295 34.319826,43.1689078 34.5195072,43.1689078 L41.6780596,43.1689078 C41.8784377,43.1689078 42.0422251,43.0030295 42.0422251,42.800909 L42.0422251,42.4318647 C42.0422251,42.232532 41.8784377,42.0663053 41.6780596,42.0663053 L34.5195072,42.0663053 Z M32.5801953,44.447146 C32.3801657,44.447146 32.2160298,44.6133728 32.2160298,44.8147963 L32.2160298,45.1841891 C32.2160298,45.3845672 32.3801657,45.5497485 32.5801953,45.5497485 L43.616326,45.5497485 C43.8180981,45.5497485 43.9836278,45.3845672 43.9836278,45.1841891 L43.9836278,44.8147963 C43.9836278,44.6133728 43.8180981,44.447146 43.616326,44.447146 L32.5801953,44.447146 Z M52.9936742,43.399604 L52.9936742,43.7543604 C52.9936742,43.8442692 52.9002806,43.9184962 52.7887658,43.9184962 L52.3834793,43.9184962 C52.271616,43.9184962 52.1768284,43.8442692 52.1768284,43.7543604 L52.1768284,43.399604 C51.9729654,43.5135582 51.833572,43.7337999 51.833572,43.9878445 L51.833572,45.8731414 C51.833572,46.2439281 52.1353589,46.5464119 52.5009183,46.5464119 L52.6695844,46.5464119 C53.0372347,46.5464119 53.3404155,46.2439281 53.3404155,45.8731414 L53.3404155,43.9878445 C53.3404155,43.7337999 53.201022,43.5146036 52.9936742,43.399604 Z M31.817713,37.7130468 L31.8198039,37.7116528 L34.1542962,33.3507277 C34.2149324,33.2528037 34.1644023,33.1628949 34.0887813,33.129092 L33.1593752,32.6464421 L55.6181057,32.6464421 L55.6181051,34.2682853 C55.6181051,34.2045128 55.6268172,34.9666466 53.5819147,35.3050243 C53.3853699,35.3301151 53.1919615,35.3806453 52.9957651,35.4064331 L52.9957651,36.3633694 C53.5512482,36.4132025 53.9903377,36.885398 53.9903377,37.450987 L53.9903377,40.0440543 C53.9903377,40.6131282 53.5512482,41.0835812 52.9957651,41.1351568 L52.9957651,42.5803188 C53.5512482,42.6284095 53.9903377,43.1030444 53.9903377,43.6714213 L53.9903377,46.2101251 C53.9903377,46.813002 53.4993241,47.305061 52.8974927,47.305061 L52.2782372,47.305061 C51.6753604,47.305061 51.1836498,46.813002 51.1836498,46.2101251 L51.1836498,43.6714213 C51.1836498,43.1030444 51.6227393,42.6284095 52.1782223,42.5803188 L52.1782223,41.1351568 C51.6227393,41.0835812 51.1836498,40.6131282 51.1836498,40.0440543 L51.1836498,37.450987 C51.1836498,36.885398 51.6227393,36.4132025 52.1782223,36.3633694 L52.1782223,35.5322357 C50.5835609,35.8012651 49.0439598,36.2706727 47.864691,37.6245319 L46.4474077,37.6245319 C46.4474077,37.6245319 45.8333794,37.9130764 45.1970481,38.4706504 C44.7628374,38.8498006 44.3181722,39.3561475 44.0526276,39.9788879 L43.5616141,39.9788879 C43.5595232,39.9823727 43.326736,40.1182814 43.1096307,40.3458412 C43.1061459,40.3510685 43.1005701,40.3531594 43.0991762,40.3580381 L43.081752,40.3737199 C43.0765247,40.3789472 43.0712975,40.3838259 43.0681611,40.3907956 C43.0611915,40.3960229 43.0577066,40.4015986 43.0545703,40.4064774 L43.0524794,40.4064774 C43.0489945,40.4110077 43.0455097,40.4186743 43.039934,40.4207652 L43.039934,40.4218107 L43.0263431,40.4354015 L43.0263431,40.4374924 C43.0232067,40.4409773 43.017631,40.445856 43.0162371,40.4493409 C43.0162371,40.4510833 43.0141462,40.4531742 43.0141462,40.4531742 C43.0110098,40.458053 43.007525,40.4601439 43.0040401,40.4646742 L43.0019492,40.4646742 C42.9988129,40.4716438 42.9939341,40.4772196 42.9904493,40.4824468 C42.8249195,40.6908401 42.7005108,40.9508089 42.7440713,41.2407474 C42.8541921,41.9513057 43.0712975,42.1133506 43.7247044,42.6597731 C44.3781114,43.2086349 45.5748045,44.4119492 46.0647726,45.0684925 C46.4867864,45.6340816 46.5453316,46.4387305 46.2073024,46.6565328 C46.1525905,46.6927751 46.0870755,46.7115932 46.0093637,46.7115932 L38.1165561,46.7115932 L38.1165561,46.7095023 L30.2781119,46.7095023 C29.7337804,46.7095023 29.7337804,45.7253843 30.2230515,45.0684925 C30.7109287,44.4119492 31.912849,43.2086349 32.5645136,42.6597731 C33.2179205,42.1133506 33.4350259,41.9513057 33.5441013,41.2407474 C33.6524797,40.5274012 32.7265585,39.9788879 32.7265585,39.9788879 L32.2372873,39.9788879 C32.0630455,39.6384193 31.7075921,39.0839817 31.3713053,38.8114674 L37.7555269,38.8114674 C37.9541627,38.8114674 38.1193439,38.6462862 38.1193439,38.447302 L38.1193439,38.0758183 C38.1193439,37.8771826 37.9559051,37.7130468 37.7555269,37.7130468 L31.817713,37.7130468 Z M26.0161561,34.0647708 C25.7854599,34.0633768 25.5697485,34.0797556 25.4526579,34.2654974 C25.0992955,34.8216774 25.1784013,36.3546573 25.1784013,36.9669431 L23.5060279,36.9669431 L23.0888929,36.5599142 L23.0888929,33.7668172 C23.4924371,33.1134102 24.511055,32.6272755 26.3904276,32.6286694 L30.4572325,32.6328512 C30.587217,32.6328512 30.6335653,32.7408812 30.5959291,32.8112749 L28.3642394,36.9645038 L26.0161561,36.9669431 L26.0161561,34.0647708 Z M52.3834793,39.6638586 L52.7866749,39.6638586 C52.9002806,39.6638586 52.9922803,39.7391311 52.9922803,39.826949 L52.9922803,40.2939171 C53.1989311,40.1782206 53.3404155,39.9611152 53.3404155,39.7098584 L53.3404155,37.7681072 C53.3404155,37.515108 53.1989311,37.2938209 52.9922803,37.1802152 L52.9922803,37.5611079 C52.9922803,37.6489258 52.8992351,37.7259407 52.7866749,37.7259407 L52.3834793,37.7259407 C52.271616,37.7259407 52.1768284,37.6510167 52.1768284,37.5611079 L52.1768284,37.1802152 C51.971223,37.2938209 51.833572,37.515108 51.833572,37.7681072 L51.833572,39.7098584 C51.833572,39.9611152 51.9729654,40.1782206 52.1768284,40.2939171 L52.1768284,39.826949 C52.1768284,39.7373887 52.2698736,39.6638586 52.3834793,39.6638586 Z" id="Fill-11" fill="#C8171E" mask="url(#mask-4)"></path>
                <polygon id="Fill-12" fill="#C8171E" mask="url(#mask-4)" points="34.3988273 27.2754717 35.5212933 27.2754717 35.5212933 25.856446 34.3988273 25.856446"></polygon>
                <path d="M28.2159247,24.5581003 C30.2061152,24.4504188 32.3576536,23.7816785 34.2335414,22.8306665 L34.8179486,24.1214502 C32.7542281,25.1146287 30.4284478,25.7788387 28.5556963,25.8715354 L28.2159247,24.5581003 Z" id="Fill-13" fill="#C8171E" mask="url(#mask-4)"></path>
                <polygon id="Fill-14" fill="#C8171E" mask="url(#mask-4)" points="35.7471456 22.106134 34.7281792 22.5957536 35.3094501 23.8715525 36.3339922 23.3756602"></polygon>
                <polygon id="Fill-15" fill="#C8171E" mask="url(#mask-4)" points="34.3988273 29.4371162 35.5212933 29.4371162 35.5212933 28.0166966 34.3988273 28.0166966"></polygon>
                <polygon id="Fill-16" fill="#C8171E" mask="url(#mask-4)" points="34.3988273 31.5994576 35.5212933 31.5994576 35.5212933 30.179038 34.3988273 30.179038"></polygon>
                <path d="M44.1661985,25.8060553 L44.4164098,26.238872 L45.3419825,25.7255555 L45.0935136,25.2889054 L44.1661985,25.8060553 Z M43.6403365,24.8595735 L43.8901994,25.2941327 L44.8143782,24.7780283 L44.5645153,24.3441661 L43.6403365,24.8595735 Z M42.3317802,23.7716074 L44.3885311,22.6372929 L48.7180927,30.4907218 L46.6592509,31.6246878 L42.3317802,23.7716074 Z" id="Fill-17" fill="#C8171E" mask="url(#mask-4)"></path>
                <path d="M40.6164737,25.8508703 L41.6751672,25.8508703 L41.6751672,25.3563719 L40.6164737,25.3563719 L40.6164737,25.8508703 Z M40.6164737,24.7667375 L41.6751672,24.7667375 L41.6751672,24.2732845 L40.6164737,24.2732845 L40.6164737,24.7667375 Z M40.6164737,23.6839986 L41.6751672,23.6839986 L41.6751672,23.1905456 L40.6164737,23.1905456 L40.6164737,23.6839986 Z M37.1835606,25.8508703 L38.2436481,25.8508703 L38.2436481,25.3563719 L37.1835606,25.3563719 L37.1835606,25.8508703 Z M37.1835606,24.7667375 L38.2436481,24.7667375 L38.2436481,24.2732845 L37.1835606,24.2732845 L37.1835606,24.7667375 Z M37.1835606,23.6839986 L38.2436481,23.6839986 L38.2436481,23.1905456 L37.1835606,23.1905456 L37.1835606,23.6839986 Z M37.1835606,22.5970779 L38.2436481,22.5970779 L38.2436481,22.1060643 L37.1835606,22.1060643 L37.1835606,22.5970779 Z M36.3283816,31.6165333 L39.0970847,31.6165333 L39.0970847,20.6936598 L36.3283816,20.6936598 L36.3283816,31.6165333 Z M39.9090517,31.6165333 L42.3815437,31.6165333 L42.3815437,21.6147023 L39.9090517,21.6147023 L39.9090517,31.6165333 Z" id="Fill-18" fill="#C8171E" mask="url(#mask-4)"></path>
                <path d="M63.5332505,36.7873695 L61.5022874,36.5232188 C61.4231816,36.5103249 61.3712575,36.4838402 61.3179395,36.4165828 C61.3043487,36.0876142 61.2918032,35.7582971 61.2660155,35.4425708 C61.2918032,35.3770559 61.3454697,35.3355863 61.4231816,35.3233894 L63.4025691,34.7957851 C63.4283569,34.7821942 63.468084,34.7706942 63.468084,34.6908915 C63.4419478,34.5201345 63.4283569,34.3221957 63.3886297,34.0988176 L63.3886297,34.0838328 L63.3886297,34.0737268 C63.362842,33.8615002 63.3370542,33.663213 63.3091755,33.491062 C63.297327,33.4112593 63.2575999,33.4112593 63.2182212,33.4112593 L61.1733188,33.4112593 C61.0938645,33.4112593 61.028698,33.3854715 60.9882739,33.3338959 C60.9231075,33.0188666 60.8575925,32.700701 60.7903352,32.3699899 C60.8182139,32.3048235 60.8575925,32.2664903 60.9353044,32.2393086 L62.8352376,31.449296 C62.8627678,31.4357051 62.901101,31.4221142 62.8728739,31.3430084 C62.8352376,31.1715545 62.7962074,30.988949 62.7299955,30.7774194 L62.7299955,30.7638285 L62.7299955,30.7516316 C62.6648291,30.5390565 62.6111626,30.3425117 62.5714354,30.1703607 C62.5435567,30.1041488 62.506269,30.1041488 62.4647994,30.1041488 L60.4334879,30.3818904 C60.3561245,30.3940873 60.302458,30.3818904 60.2369431,30.3303148 C60.1435494,30.0131946 60.0390043,29.7093168 59.9198229,29.4057875 C59.9456107,29.3270302 59.9867317,29.2737122 60.0525952,29.2343335 L61.8333469,28.2202459 C61.8591347,28.2059581 61.885271,28.1801703 61.8591347,28.1146553 C61.8075591,27.9425044 61.7267109,27.7581565 61.6472566,27.5612632 L61.6354082,27.5497632 L61.6354082,27.5340815 C61.542363,27.3239458 61.4629088,27.1531888 61.3970453,26.9799924 C61.3712575,26.9169168 61.3322274,26.9291137 61.2918032,26.9291137 L59.3127642,27.468218 C59.23331,27.4947028 59.167795,27.4818089 59.1005377,27.4288394 C58.9695078,27.1389009 58.824887,26.8611594 58.6802663,26.5862058 C58.6802663,26.4942061 58.719645,26.4391456 58.7851599,26.3893125 L60.4077001,25.147665 C60.4334879,25.1215287 60.4613666,25.0960894 60.4334879,25.030226 C60.3439276,24.8723629 60.24914,24.7005604 60.1435494,24.5144701 C60.1435494,24.5144701 60.1435494,24.5026216 60.1320495,24.5026216 L60.1320495,24.4886823 C60.0125195,24.2907436 59.9198229,24.1199865 59.8285201,23.9750173 C59.7891415,23.9101993 59.7490659,23.9230932 59.7093387,23.9352902 L57.8233449,24.7256512 C57.7417997,24.7646814 57.6762847,24.752833 57.5989213,24.7134543 C57.4267704,24.4493036 57.2556649,24.1976984 57.0831655,23.9492295 C57.0577261,23.8561844 57.0831655,23.7903209 57.1511198,23.7251545 L58.600812,22.2747653 C58.6265998,22.2472351 58.6537815,22.2235382 58.6130089,22.1566293 C58.5091608,22.0249025 58.3889339,21.8649484 58.2575556,21.681646 L58.2453586,21.681646 L58.2453586,21.670146 L58.2317678,21.670146 C58.0989955,21.4840557 57.9815565,21.338738 57.8752689,21.1937688 C57.8233449,21.1421932 57.7836177,21.1561326 57.7560875,21.1801779 L55.9892751,22.196008 C55.9094723,22.2472351 55.8317604,22.2472351 55.7509122,22.2109928 C55.5543674,21.9855238 55.3557317,21.7475094 55.1438536,21.5234344 C55.1184143,21.4443286 55.1320051,21.3669652 55.1853232,21.2990109 L56.4384706,19.6785616 C56.4628644,19.6527738 56.4764553,19.6133952 56.4248797,19.5597287 C56.3056983,19.4283503 56.1732745,19.2819871 56.0164568,19.1384119 L56.0164568,19.1251695 L56.0028659,19.1251695 L56.0028659,19.113321 L55.9892751,19.113321 C55.8439574,18.9523216 55.6993366,18.8216402 55.5665643,18.7028072 C55.5125494,18.6491407 55.4731707,18.6784134 55.4473829,18.6906103 L53.8248427,19.9427123 C53.7593278,19.9942879 53.680222,20.0078787 53.6007677,19.9817424 C53.3766927,19.7838037 53.1407692,19.5733195 52.9146033,19.3868807 C52.8766186,19.2959265 52.8766186,19.2300631 52.9281941,19.1506088 L53.957615,17.3715994 C53.9719029,17.3454632 53.9834028,17.3060845 53.9300848,17.2649634 C53.7851156,17.1496153 53.6401464,17.0300854 53.4557985,16.8976616 L53.4557985,16.8840707 L53.44395,16.8840707 L53.44395,16.8715253 C53.2592537,16.7391015 53.1006936,16.6216625 52.9679213,16.5143295 C52.9024064,16.4752993 52.8766186,16.5014356 52.8508308,16.5286173 L51.4011385,17.9786581 C51.3335327,18.044173 51.2662753,18.0699608 51.1871695,18.0577639 C50.9230189,17.8737645 50.6735045,17.701962 50.4093539,17.5301595 C50.3699752,17.4646446 50.3574298,17.3855388 50.3971569,17.3060845 L51.1871695,15.4200906 C51.2007604,15.3817574 51.2143512,15.3402879 51.1470939,15.3026516 C51.0021247,15.209955 50.8320646,15.1183038 50.6351713,14.9994708 L50.6215805,14.9994708 C50.6215805,14.9994708 50.6215805,14.9855315 50.6076411,14.9855315 C50.4229447,14.8802894 50.2507938,14.7889866 50.0943246,14.695593 C50.0267188,14.6698052 50.000931,14.695593 49.9751432,14.7238202 L48.7355866,16.343921 C48.6819201,16.4247692 48.6282536,16.4495115 48.5369509,16.4495115 C48.2613003,16.3045423 47.9818163,16.1602701 47.6922264,16.0271493 C47.6385599,15.9612859 47.6263629,15.8975133 47.6521507,15.8163166 L48.1936944,13.8400655 C48.1936944,13.8128838 48.2062398,13.7595658 48.1403764,13.733778 C47.9699679,13.668263 47.79712,13.5888087 47.5866358,13.4957636 L47.5730449,13.4957636 L47.5587571,13.4957636 C47.3615153,13.4041124 47.1782129,13.3389459 47.0074559,13.2730825 C46.9422894,13.2472947 46.9147592,13.2856279 46.9004714,13.3114157 L45.8849898,15.0785766 C45.8456112,15.1580309 45.7940356,15.197758 45.7128389,15.209955 C45.4093096,15.092516 45.1078712,14.9855315 44.7904025,14.8924863 C44.7388269,14.8402137 44.7231451,14.7750473 44.7388269,14.695593 L45.0158715,12.6646299 C45.0158715,12.6273422 45.0158715,12.5872665 44.9493111,12.5750696 C44.7764631,12.5214031 44.5781759,12.4680851 44.3680402,12.4147671 L44.3680402,12.4025702 L44.3544494,12.4025702 L44.3422524,12.4025702 C44.1300259,12.3492522 43.9460265,12.2980251 43.774921,12.2593434 C43.6954667,12.2440101 43.6818758,12.2711918 43.6696789,12.309525 L42.8782724,14.1958674 C42.8507421,14.2746247 42.8127574,14.3143518 42.7455001,14.3408366 C42.4158345,14.2746247 42.1008052,14.2098067 41.783685,14.1425494 C41.7300185,14.1042161 41.7038822,14.0390497 41.7038822,13.9561106 L41.7038822,11.9129506 C41.7038822,11.8889052 41.7038822,11.8369811 41.6251249,11.8369811 C41.4543679,11.79586 41.2553837,11.7700722 41.0438541,11.7442844 L41.0302632,11.7442844 L41.0180663,11.7442844 C40.7939913,11.7167542 40.5960525,11.6902695 40.424947,11.6763301 C40.3454927,11.6644817 40.3319019,11.7045573 40.3319019,11.7320875 L39.7921006,13.7062477 C39.7785097,13.7867475 39.7387826,13.8400655 39.6715252,13.8783987 C39.355799,13.8543533 39.0250879,13.8261261 38.6957708,13.8128838 C38.6438468,13.7735051 38.6044681,13.7062477 38.6044681,13.6281874 L38.3403175,11.5993152 C38.3263781,11.571785 38.3145297,11.5320579 38.2472723,11.5320579 C38.1545756,11.5198609 38.0625759,11.5198609 37.9576823,11.5198609 L37.9318945,11.5198609 L37.9176067,11.5198609 L37.8918189,11.5198609 L37.8782281,11.5198609 L37.8646372,11.5198609 L37.8524403,11.5198609 L37.8385009,11.5198609 L37.826304,11.5198609 L37.8109707,11.5198609 L37.7987738,11.5198609 L37.7747284,11.5198609 L37.7593951,11.5198609 L37.7214104,11.5198609 L37.7078195,11.5198609 L37.6938802,11.5198609 L37.6799408,11.5198609 L37.6677439,11.5198609 L37.654153,11.5198609 L37.6398652,11.5198609 L37.6283652,11.5198609 L37.6147744,11.5198609 L37.6025774,11.5198609 L37.5889866,11.5198609 L37.5746987,11.5198609 L37.5611079,11.5198609 L37.5489109,11.5198609 L37.536714,11.5198609 L37.5231231,11.5198609 L37.5077899,11.5198609 L37.4969869,11.5198609 L37.483396,11.5198609 L37.4698051,11.5198609 L37.4555173,11.5198609 L37.4440173,11.5198609 L37.4304265,11.5198609 L37.4161386,11.5198609 L37.4025478,11.5198609 L37.312639,11.5198609 C37.2056545,11.5198609 37.1129578,11.5198609 37.0213066,11.5320579 C36.9557917,11.5320579 36.9422008,11.571785 36.9422008,11.5993152 L36.6780501,13.6281874 C36.6644593,13.7062477 36.6369291,13.7735051 36.573505,13.8128838 C36.2424455,13.8261261 35.9260223,13.8543533 35.5974022,13.8783987 C35.5437357,13.8400655 35.5040085,13.7867475 35.4904177,13.7062477 L34.9645557,11.7320875 C34.9506164,11.7045573 34.936677,11.6644817 34.8715106,11.6763301 C34.6868142,11.6902695 34.488527,11.7167542 34.2783913,11.7442844 L34.2648004,11.7442844 L34.2512096,11.7442844 C34.0285285,11.7700722 33.8284988,11.79586 33.6577418,11.8369811 C33.5922269,11.8369811 33.577939,11.8889052 33.577939,11.9129506 L33.577939,13.9561106 C33.5922269,14.0390497 33.5664391,14.1042161 33.5127726,14.1425494 C33.1817131,14.2098067 32.8666838,14.2746247 32.5488666,14.3408366 C32.4715032,14.3143518 32.4317761,14.2746247 32.4045944,14.1958674 L31.6264302,12.309525 C31.6128394,12.2711918 31.5870516,12.2440101 31.5215366,12.2593434 C31.3490372,12.2980251 31.15075,12.3492522 30.9406143,12.4025702 L30.9270234,12.4025702 C30.914478,12.4025702 30.914478,12.4025702 30.914478,12.4147671 C30.7043423,12.4680851 30.5043127,12.5214031 30.3471465,12.5750696 C30.2680407,12.5872665 30.2816316,12.6273422 30.2816316,12.6646299 L30.5436914,14.695593 C30.5576307,14.7750473 30.5436914,14.8402137 30.4921158,14.8924863 C30.188238,14.9855315 29.8711178,15.092516 29.5696794,15.209955 C29.502422,15.197758 29.4511949,15.1580309 29.4093769,15.0785766 L28.3820469,13.3114157 C28.36985,13.2856279 28.3419713,13.2472947 28.2764563,13.2730825 C28.1043054,13.3389459 27.9335483,13.4041124 27.7230642,13.4957636 L27.7094733,13.4957636 L27.6951855,13.4957636 C27.4993376,13.5888087 27.3125504,13.668263 27.1539903,13.733778 C27.0888238,13.7595658 27.0888238,13.8128838 27.1024147,13.8400655 L27.6303675,15.8163166 C27.6558068,15.8975133 27.6418675,15.9612859 27.6042312,16.0271493 C27.3125504,16.1602701 27.0233089,16.3045423 26.7455674,16.4495115 C26.6678555,16.4495115 26.6009466,16.4247692 26.5490226,16.343921 L25.3213144,14.7238202 C25.2951782,14.695593 25.2693904,14.6698052 25.2024815,14.695593 C25.0578607,14.7889866 24.8731644,14.8802894 24.688468,14.9855315 L24.688468,14.9994708 L24.6752256,14.9994708 L24.6609378,14.9994708 C24.4765899,15.1183038 24.3058329,15.209955 24.1472728,15.3026516 C24.0953487,15.3402879 24.1075457,15.3817574 24.1211365,15.4200906 L24.8993007,17.3060845 C24.9386793,17.3855388 24.9386793,17.4646446 24.8850128,17.5301595 C24.63515,17.701962 24.3709994,17.8737645 24.1211365,18.0577639 C24.0284399,18.0699608 23.9625764,18.044173 23.89741,17.9786581 L22.4592177,16.5286173 C22.432036,16.5014356 22.3919603,16.4752993 22.3403848,16.5143295 C22.195764,16.6216625 22.0368554,16.7391015 21.8664469,16.8715253 L21.8525076,16.8840707 L21.8385682,16.8840707 L21.8385682,16.8976616 C21.6681597,17.0300854 21.5095996,17.1496153 21.3764788,17.2649634 C21.3116608,17.3060845 21.3384941,17.3454632 21.350691,17.3715994 L22.3801119,19.1506088 C22.4194906,19.2300631 22.432036,19.2959265 22.3919603,19.3868807 C22.1563854,19.5733195 21.9316134,19.7838037 21.7078868,19.9817424 C21.6144932,20.0078787 21.5346904,19.9942879 21.469524,19.9427123 L19.8476808,18.6906103 C19.8215445,18.6784134 19.7814689,18.6491407 19.7284993,18.7028072 C19.597121,18.8216402 19.4646972,18.9523216 19.3057886,19.113321 L19.2942886,19.1251695 C19.2942886,19.1251695 19.2942886,19.1384119 19.2800008,19.1384119 C19.1350316,19.2819871 18.9907593,19.4283503 18.8715779,19.5597287 C18.8179114,19.6133952 18.8457901,19.6527738 18.857987,19.6785616 L20.110786,21.2990109 C20.1648009,21.3669652 20.1766494,21.4443286 20.1512101,21.5234344 C19.9525744,21.7475094 19.7542871,21.9855238 19.5577423,22.2109928 C19.4646972,22.2472351 19.3988337,22.2472351 19.3200764,22.196008 L17.5403701,21.1801779 C17.5124914,21.1561326 17.4731127,21.1421932 17.435128,21.1937688 C17.3145527,21.338738 17.1950227,21.4840557 17.0643413,21.670146 L17.050402,21.670146 L17.050402,21.681646 C16.9057813,21.8649484 16.7865998,22.0249025 16.6935547,22.1566293 C16.6405852,22.2235382 16.6677669,22.2472351 16.6935547,22.2747653 L18.1453378,23.7251545 C18.2108528,23.7903209 18.238383,23.8561844 18.2247921,23.9492295 C18.0404442,24.1976984 17.8696872,24.4493036 17.6975363,24.7134543 C17.6299304,24.752833 17.552567,24.7646814 17.4731127,24.7256512 L15.5871189,23.9352902 C15.5613311,23.9230932 15.5212555,23.9101993 15.4818768,23.9750173 C15.3888317,24.1199865 15.2832411,24.2907436 15.1783475,24.4886823 L15.1640597,24.4886823 L15.1640597,24.5026216 L15.1640597,24.5144701 C15.0455752,24.7005604 14.954621,24.8723629 14.8748182,25.030226 C14.8354395,25.0960894 14.8626213,25.1215287 14.888409,25.147665 L16.5231461,26.3893125 C16.5883126,26.4391456 16.6158428,26.4942061 16.6158428,26.5862058 C16.4712221,26.8611594 16.3387983,27.1389009 16.193829,27.4288394 C16.1265717,27.4818089 16.0610567,27.4947028 15.9836934,27.468218 L14.0043059,26.9291137 C13.9785181,26.9291137 13.9391394,26.9169168 13.8973214,26.9799924 C13.8314579,27.1531888 13.7537461,27.3239458 13.6749888,27.5340815 L13.6610494,27.5340815 L13.6610494,27.5497632 L13.6610494,27.5612632 C13.5693982,27.7581565 13.5028378,27.9425044 13.4369744,28.1146553 C13.4111866,28.1801703 13.4509137,28.2059581 13.4760046,28.2202459 L15.2438624,29.2343335 C15.3229682,29.2737122 15.3626954,29.3270302 15.3766347,29.4057875 C15.2574533,29.7093168 15.1640597,30.0131946 15.0591661,30.3303148 C15.0061965,30.3818904 14.9403331,30.3940873 14.8626213,30.3818904 L12.8302642,30.1041488 C12.8044764,30.1041488 12.7504615,30.1041488 12.7368706,30.1703607 C12.685295,30.3425117 12.631977,30.5390565 12.5804014,30.7516316 L12.5661136,30.7516316 L12.5661136,30.7638285 L12.5661136,30.7774194 C12.514538,30.988949 12.46122,31.1715545 12.4211444,31.3430084 C12.4092959,31.4221142 12.4469322,31.4357051 12.4730684,31.449296 L14.3594108,32.2393086 C14.4385166,32.2664903 14.4778952,32.3048235 14.5061224,32.3699899 C14.4385166,32.700701 14.3733501,33.0188666 14.3193351,33.3338959 C14.2677596,33.3990623 14.2008507,33.4112593 14.1231388,33.4112593 L12.0782364,33.4112593 C12.0521001,33.4112593 12.0127215,33.4112593 11.9991306,33.491062 C11.9733428,33.663213 11.9336156,33.8615002 11.9060854,34.0737268 L11.9060854,34.0838328 L11.9060854,34.0988176 C11.8799492,34.3221957 11.8541614,34.5201345 11.8405705,34.6908915 C11.8283736,34.7706942 11.8663583,34.7821942 11.89354,34.7957851 L13.8711851,35.3233894 C13.9527303,35.3355863 14.0043059,35.3770559 14.0436845,35.4425708 C14.0178967,35.7582971 13.9921089,36.0876142 13.9785181,36.4165828 C13.9391394,36.4838402 13.8851244,36.5103249 13.7920793,36.5232188 L11.7614647,36.7873695 C11.7349799,36.7873695 11.6956013,36.7995664 11.6956013,36.8650814 C11.6834043,37.0508232 11.6834043,37.247368 11.6834043,37.4578521 L11.6834043,37.471443 L11.6834043,37.4857308 L11.6834043,37.4993217 C11.6834043,37.7094574 11.6834043,37.9077446 11.6956013,38.0906986 C11.6956013,38.1583044 11.7349799,38.1725922 11.7614647,38.1725922 L13.7920793,38.433955 C13.8851244,38.4475459 13.9391394,38.4740307 13.9785181,38.540591 C13.9921089,38.8681657 14.0178967,39.183892 14.0436845,39.5166939 C14.0043059,39.5822089 13.9527303,39.6201936 13.8711851,39.6323905 L11.89354,40.1599949 C11.8663583,40.1756766 11.8283736,40.1871766 11.8405705,40.2652369 C11.8541614,40.4377364 11.8799492,40.6356751 11.9060854,40.8458108 L11.9060854,40.8597502 L11.9060854,40.8712501 L11.9060854,40.8855379 C11.9336156,41.0956736 11.9594034,41.2946578 11.9991306,41.4668088 C11.9991306,41.5441722 12.0521001,41.5441722 12.0782364,41.5441722 L14.1231388,41.5441722 C14.2008507,41.5441722 14.2677596,41.55846 14.3193351,41.611778 C14.3733501,41.9410951 14.4385166,42.2561244 14.5061224,42.5871839 C14.4778952,42.6523504 14.4385166,42.6910321 14.3594108,42.7185623 L12.4730684,43.5099688 C12.4333413,43.5221657 12.4092959,43.5357566 12.4211444,43.6155593 C12.46122,43.7720285 12.514538,43.9699673 12.5661136,44.1804514 L12.5661136,44.1926484 L12.5661136,44.2062392 L12.5804014,44.2062392 C12.631977,44.4177689 12.685295,44.6153591 12.7368706,44.7875101 C12.7504615,44.853025 12.8044764,44.853025 12.8302642,44.853025 L14.8626213,44.5759805 C14.9403331,44.563435 15.0061965,44.5759805 15.0591661,44.62895 C15.1525597,44.9460702 15.2574533,45.2482055 15.3766347,45.5531288 C15.3626954,45.6308407 15.3229682,45.6845072 15.2438624,45.7099465 L13.4760046,46.7376249 C13.4509137,46.7512158 13.4111866,46.7770036 13.4369744,46.8425185 C13.5028378,47.0153664 13.5693982,47.1976234 13.6610494,47.3962591 L13.6610494,47.40985 L13.6610494,47.4234409 C13.7537461,47.6360159 13.8314579,47.806773 13.8973214,47.9754391 C13.9252001,48.030151 13.9785181,48.030151 14.0043059,48.0165602 L15.9836934,47.4896528 C16.0610567,47.463168 16.1265717,47.4774559 16.193829,47.5283345 C16.3248589,47.806773 16.4712221,48.0939235 16.6158428,48.3716651 C16.6158428,48.4650587 16.5883126,48.5166343 16.5109492,48.5699523 L14.888409,49.8102058 C14.8626213,49.8359936 14.8354395,49.8621299 14.8626213,49.9286903 C14.954621,50.0858564 15.0455752,50.2566135 15.1525597,50.4434007 C15.1640597,50.4434007 15.1640597,50.4562946 15.1640597,50.4562946 L15.1640597,50.4691885 L15.1783475,50.4691885 C15.2832411,50.6671273 15.3888317,50.8378843 15.4818768,50.9828535 C15.5080131,51.0347776 15.5473917,51.0347776 15.5871189,51.0218837 L17.4731127,50.2308257 C17.552567,50.19075 17.6299304,50.2036439 17.6975363,50.2444165 C17.8696872,50.5064763 18.0404442,50.75843 18.2247921,51.0082928 C18.238383,51.101338 18.2108528,51.1668529 18.1453378,51.2327163 L16.6935547,52.6844995 C16.6677669,52.7102873 16.6405852,52.7343327 16.6935547,52.8029839 C16.7865998,52.9343623 16.9057813,53.0908315 17.0385536,53.2751794 L17.050402,53.2751794 L17.050402,53.2891187 L17.0643413,53.2891187 C17.1950227,53.4741636 17.3145527,53.6170419 17.435128,53.7634051 C17.4731127,53.8149806 17.5124914,53.8034807 17.5403701,53.7769959 L19.3200764,52.7622114 C19.3988337,52.7102873 19.4646972,52.7102873 19.5577423,52.7486205 C19.7542871,52.9716501 19.9525744,53.2100129 20.1512101,53.434088 C20.1766494,53.5121483 20.1648009,53.592648 20.110786,53.6578145 L18.857987,55.2810516 C18.8457901,55.305097 18.8179114,55.3444757 18.8715779,55.3981422 C18.9907593,55.5302175 19.1214407,55.6737928 19.2800008,55.8201559 C19.2800008,55.8201559 19.2800008,55.8323529 19.2942886,55.8323529 L19.2942886,55.8442013 L19.3057886,55.8442013 C19.4646972,56.0034584 19.597121,56.1358822 19.7284993,56.2543666 C19.7814689,56.3083816 19.8215445,56.2808514 19.8476808,56.2665636 L21.469524,55.0151586 C21.5346904,54.9632345 21.6144932,54.9503406 21.6939475,54.9754314 C21.917674,55.1744156 22.1563854,55.3859452 22.3801119,55.5702931 C22.4194906,55.6602019 22.4194906,55.7400047 22.3661726,55.8065651 L21.350691,57.584529 C21.3231608,57.6117107 21.3116608,57.6510894 21.3642819,57.7040589 C21.5095996,57.8096494 21.6681597,57.9274369 21.8385682,58.0623001 L21.8385682,58.0738001 L21.8525076,58.0738001 L21.8525076,58.085997 C22.0368554,58.2173754 22.195764,58.3358599 22.3403848,58.4414504 C22.3919603,58.48292 22.4194906,58.4557383 22.4456268,58.4292535 L23.89741,56.9785158 C23.9625764,56.9140463 24.0284399,56.8882585 24.1211365,56.8997585 C24.3709994,57.0861973 24.62365,57.2548634 24.8850128,57.4273628 C24.9250885,57.4925293 24.9386793,57.572332 24.8993007,57.6510894 L24.1075457,59.5377802 C24.0953487,59.5754164 24.0953487,59.615492 24.1472728,59.6548707 C24.2925905,59.7475674 24.464393,59.8392186 24.6609378,59.9584 L24.6752256,59.9584 C24.6752256,59.9719909 24.688468,59.9719909 24.688468,59.9719909 C24.8731644,60.0775814 25.0456638,60.1702781 25.2024815,60.2619293 C25.2693904,60.289808 25.2951782,60.2619293 25.3213144,60.2340506 L26.5490226,58.6136014 C26.6009466,58.5358895 26.6542646,58.5087078 26.7455674,58.5087078 C27.0233089,58.653677 27.3125504,58.7979493 27.5902919,58.9307216 C27.6418675,58.995888 27.6558068,59.0614029 27.6303675,59.1415542 L27.1024147,61.1052599 C27.0888238,61.1449871 27.0888238,61.1836688 27.1539903,61.2087596 C27.3125504,61.2774109 27.4850498,61.3551227 27.6951855,61.4485164 L27.7094733,61.4485164 C27.7230642,61.4485164 27.7230642,61.4485164 27.7230642,61.4607133 C27.9199575,61.5415615 28.1043054,61.6185764 28.2764563,61.670849 C28.3419713,61.6980307 28.36985,61.670849 28.3820469,61.6307734 L29.4093769,59.8796427 C29.4369071,59.7998399 29.4905736,59.7618552 29.5696794,59.7475674 C29.8711178,59.8670973 30.1746471,59.9719909 30.4921158,60.0660815 C30.5436914,60.1169601 30.5576307,60.182475 30.5436914,60.2619293 L30.2680407,62.2793015 C30.2680407,62.3190287 30.2680407,62.3584073 30.3335557,62.3706043 C30.5043127,62.4235738 30.7043423,62.4754979 30.914478,62.5413613 L30.9270234,62.5413613 L30.9406143,62.5413613 C31.15075,62.6068762 31.3490372,62.6462549 31.5079458,62.6863305 C31.5870516,62.7135123 31.6006425,62.6741336 31.6128394,62.6462549 L32.4045944,60.750155 C32.4317761,60.6811552 32.4715032,60.6431705 32.5366697,60.6187767 C32.8666838,60.6811552 33.1817131,60.750155 33.5127726,60.8017306 C33.5664391,60.8411093 33.577939,60.9066242 33.577939,60.9853815 L33.577939,63.0309809 C33.577939,63.0689656 33.577939,63.1083443 33.6577418,63.1219352 C33.8284988,63.1487684 34.0285285,63.1752532 34.2386642,63.199647 L34.2512096,63.199647 L34.2648004,63.199647 L34.2783913,63.199647 C34.488527,63.2390257 34.6868142,63.2533135 34.8575712,63.2787528 C34.936677,63.2787528 34.9506164,63.2390257 34.9645557,63.2132379 L35.4904177,61.2380322 C35.5040085,61.1585779 35.5437357,61.1052599 35.5974022,61.0794721 C35.9127799,61.1052599 36.2424455,61.1188508 36.573505,61.1303507 C36.6369291,61.1836688 36.6644593,61.2380322 36.6780501,61.3150471 L36.9422008,63.3467072 C36.9422008,63.372495 36.9557917,63.4118736 37.0213066,63.4254645 L37.4025478,63.4254645 L37.4161386,63.4254645 L37.4304265,63.4254645 L37.4440173,63.4254645 L37.4555173,63.4254645 L37.4698051,63.4254645 L37.483396,63.4254645 L37.4969869,63.4254645 L37.5077899,63.4254645 L37.5231231,63.4254645 L37.536714,63.4254645 L37.5489109,63.4254645 L37.5611079,63.4254645 L37.5746987,63.4254645 L37.5889866,63.4254645 L37.6025774,63.4254645 L37.6147744,63.4254645 L37.6283652,63.4254645 L37.6398652,63.4254645 L37.654153,63.4254645 L37.6677439,63.4254645 L37.6799408,63.4254645 L37.6938802,63.4254645 L37.7078195,63.4254645 L37.7214104,63.4254645 L37.7593951,63.4254645 L37.7747284,63.4254645 L37.7987738,63.4254645 L37.8109707,63.4254645 L37.826304,63.4254645 L37.8385009,63.4254645 L37.8524403,63.4254645 L37.8646372,63.4254645 L37.8782281,63.4254645 L37.8918189,63.4254645 L37.9176067,63.4254645 L37.9318945,63.4254645 L37.9576823,63.4254645 L38.1423787,63.4254645 L38.1681665,63.4254645 L38.1817574,63.4254645 L38.2472723,63.4254645 C38.3145297,63.4118736 38.3263781,63.372495 38.3403175,63.3467072 L38.6044681,61.3150471 C38.6044681,61.2380322 38.6438468,61.1836688 38.6957708,61.1303507 C39.0250879,61.1188508 39.355799,61.1052599 39.6715252,61.0794721 C39.7387826,61.1052599 39.7785097,61.1585779 39.8036006,61.2380322 L40.3319019,63.2132379 C40.3319019,63.2390257 40.3590836,63.2787528 40.424947,63.2787528 C40.5960525,63.2533135 40.7939913,63.2390257 41.0180663,63.199647 L41.0302632,63.199647 L41.0438541,63.199647 C41.2696715,63.1752532 41.4543679,63.1487684 41.6390643,63.1219352 C41.7038822,63.1083443 41.7038822,63.0689656 41.7038822,63.0309809 L41.7038822,60.9853815 C41.7038822,60.9066242 41.7300185,60.8411093 41.783685,60.8017306 C42.1008052,60.750155 42.4280314,60.6811552 42.7455001,60.6187767 C42.8127574,60.6431705 42.864333,60.6811552 42.8904693,60.750155 L43.6696789,62.6462549 C43.6818758,62.6741336 43.7090575,62.7135123 43.774921,62.6863305 C43.9460265,62.6462549 44.1300259,62.6068762 44.3544494,62.5413613 L44.3680402,62.5413613 L44.3816311,62.5413613 C44.5921153,62.4754979 44.7764631,62.4235738 44.9493111,62.3706043 C45.0158715,62.3584073 45.0158715,62.3190287 45.0158715,62.2793015 L44.7388269,60.2619293 C44.7231451,60.182475 44.7506753,60.1169601 44.7904025,60.0660815 C45.1078712,59.9719909 45.4093096,59.8670973 45.7128389,59.7475674 C45.7940356,59.7618552 45.8456112,59.7998399 45.8849898,59.8796427 L46.9004714,61.6307734 C46.9266076,61.670849 46.9541379,61.6980307 47.0196528,61.670849 C47.1782129,61.6185764 47.3615153,61.5415615 47.5730449,61.4607133 L47.5730449,61.4485164 L47.5866358,61.4485164 C47.79712,61.3551227 47.9818163,61.2774109 48.1403764,61.2087596 C48.2062398,61.1836688 48.1936944,61.1449871 48.1936944,61.1052599 L47.6521507,59.1415542 C47.6385599,59.0614029 47.6385599,58.995888 47.6922264,58.9307216 C47.9818163,58.7979493 48.2613003,58.653677 48.5491478,58.5087078 C48.6282536,58.5087078 48.694117,58.5358895 48.7355866,58.6136014 L49.9866431,60.2340506 C50.000931,60.2619293 50.0424005,60.289808 50.0943246,60.2619293 C50.2507938,60.1702781 50.4229447,60.0775814 50.6215805,59.9719909 L50.6215805,59.9584 L50.6351713,59.9584 C50.8320646,59.8392186 51.0021247,59.7475674 51.1470939,59.6548707 C51.2143512,59.615492 51.2007604,59.5754164 51.1871695,59.5377802 L50.4093539,57.6510894 C50.3699752,57.572332 50.3699752,57.4925293 50.4093539,57.4273628 C50.6735045,57.2548634 50.9387006,57.0861973 51.1871695,56.8997585 C51.2662753,56.8882585 51.3453811,56.9140463 51.4011385,56.9785158 L52.8508308,58.4292535 C52.8766186,58.4557383 52.9024064,58.48292 52.9679213,58.4414504 C53.1128905,58.3358599 53.2717991,58.2173754 53.44395,58.085997 L53.44395,58.0738001 L53.4557985,58.0738001 C53.4557985,58.0738001 53.4557985,58.0623001 53.4697378,58.0623001 C53.6401464,57.9274369 53.7987065,57.8096494 53.9300848,57.7040589 C53.9834028,57.6510894 53.9719029,57.6117107 53.957615,57.584529 L52.9281941,55.8065651 C52.8766186,55.7400047 52.8766186,55.6602019 52.9146033,55.5702931 C53.1543601,55.3859452 53.3766927,55.1744156 53.6007677,54.9754314 C53.6938129,54.9503406 53.7593278,54.9632345 53.8384336,55.0151586 L55.4609738,56.2665636 C55.4888525,56.2808514 55.5125494,56.3083816 55.5665643,56.2543666 C55.6993366,56.1358822 55.8439574,56.0034584 56.0028659,55.8442013 L56.0028659,55.8323529 L56.0164568,55.8323529 L56.0164568,55.8201559 C56.1732745,55.6737928 56.3196376,55.5302175 56.4384706,55.3981422 C56.4764553,55.3444757 56.4628644,55.305097 56.4384706,55.2810516 L55.1971716,53.6578145 C55.1320051,53.592648 55.1184143,53.5121483 55.1438536,53.434088 C55.3557317,53.2100129 55.5543674,52.9716501 55.7509122,52.7486205 C55.8317604,52.7102873 55.9094723,52.7102873 55.9892751,52.7622114 L57.7560875,53.7769959 C57.7836177,53.8034807 57.8233449,53.8149806 57.8752689,53.7634051 C57.9815565,53.6170419 58.0989955,53.4741636 58.2453586,53.2891187 L58.2453586,53.2751794 L58.2575556,53.2751794 C58.3889339,53.0908315 58.5091608,52.9343623 58.6130089,52.8029839 C58.6537815,52.7343327 58.6265998,52.7102873 58.600812,52.6844995 L57.1511198,51.2327163 C57.0831655,51.1668529 57.0695746,51.101338 57.0831655,51.0082928 C57.2556649,50.75843 57.4267704,50.5064763 57.5989213,50.2444165 C57.6762847,50.2036439 57.7417997,50.19075 57.8233449,50.2308257 L59.7215356,51.0218837 C59.7490659,51.0347776 59.7891415,51.0347776 59.8285201,50.9828535 C59.9198229,50.8378843 60.0125195,50.6671273 60.1320495,50.4691885 L60.1320495,50.4562946 L60.1435494,50.4562946 L60.1435494,50.4434007 C60.24914,50.2566135 60.3561245,50.0858564 60.4334879,49.9286903 C60.473215,49.8621299 60.4334879,49.8359936 60.4077001,49.8102058 L58.7851599,48.5699523 C58.719645,48.5166343 58.6802663,48.4650587 58.6802663,48.3716651 C58.824887,48.0939235 58.9695078,47.806773 59.1005377,47.5283345 C59.167795,47.4774559 59.23331,47.463168 59.3127642,47.4896528 L61.2918032,48.0165602 C61.3322274,48.030151 61.3712575,48.030151 61.3970453,47.9754391 C61.4764996,47.806773 61.5559539,47.6360159 61.6354082,47.4234409 L61.6354082,47.40985 L61.6472566,47.3962591 C61.7267109,47.1976234 61.8075591,47.0153664 61.8591347,46.8425185 C61.885271,46.7770036 61.8591347,46.7512158 61.8333469,46.7376249 L60.0525952,45.7099465 C59.9867317,45.6845072 59.9456107,45.6308407 59.9334137,45.5531288 C60.0390043,45.2482055 60.1435494,44.9460702 60.2369431,44.62895 C60.302458,44.5759805 60.3561245,44.563435 60.4334879,44.5759805 L62.4647994,44.853025 C62.506269,44.853025 62.5435567,44.853025 62.5714354,44.7875101 C62.6111626,44.6153591 62.6648291,44.4177689 62.7299955,44.2062392 L62.7299955,44.1926484 L62.7299955,44.1804514 C62.7962074,43.9699673 62.8352376,43.7720285 62.8728739,43.6155593 C62.901101,43.5357566 62.8627678,43.5221657 62.8352376,43.5099688 L60.9353044,42.7185623 C60.8575925,42.6910321 60.8182139,42.6523504 60.7903352,42.5871839 C60.8697895,42.2561244 60.9231075,41.9410951 60.9882739,41.611778 C61.028698,41.55846 61.0938645,41.5441722 61.1733188,41.5441722 L63.2182212,41.5441722 C63.2575999,41.5441722 63.297327,41.5441722 63.3091755,41.4668088 C63.3370542,41.2946578 63.362842,41.0956736 63.3886297,40.8855379 L63.3886297,40.8712501 L63.3886297,40.8597502 L63.3886297,40.8458108 C63.4283569,40.6356751 63.4419478,40.4377364 63.468084,40.2652369 C63.468084,40.1871766 63.4283569,40.1756766 63.4025691,40.1599949 L61.4231816,39.6323905 C61.3454697,39.6201936 61.2918032,39.5822089 61.2660155,39.5166939 C61.2918032,39.183892 61.3043487,38.8681657 61.3179395,38.540591 C61.3712575,38.4740307 61.4231816,38.4475459 61.5022874,38.433955 L63.5332505,38.1725922 C63.5611292,38.1725922 63.6005078,38.1583044 63.6140987,38.0906986 L63.6140987,37.4993217 L63.6140987,37.4857308 L63.6140987,37.471443 L63.6140987,37.4578521 L63.6140987,36.8650814 C63.6005078,36.7995664 63.5611292,36.7873695 63.5332505,36.7873695 M37.6398652,58.7327828 C25.9283731,58.7327828 16.3921163,49.1892078 16.3921163,37.4857308 C16.3921163,25.768663 25.9283731,16.2254365 37.6398652,16.2254365 C49.3541452,16.2254365 58.9043413,25.768663 58.9043413,37.4857308 C58.9043413,49.1892078 49.3541452,58.7327828 37.6398652,58.7327828" id="Fill-19" fill="#C8171E" mask="url(#mask-4)"></path>
                <path d="M36.3454224,50.5480504 L36.3196346,50.5379444 L36.257953,50.514596 L36.3182407,50.4881112 L36.3401952,50.4759143 C36.4886492,50.4051721 36.5837853,50.2445211 36.5837853,50.0716732 L36.5837853,49.5154931 C36.5837853,49.2771303 36.3677254,49.0722219 36.1230898,49.0722219 L33.0682816,49.0722219 C32.82504,49.0722219 32.6284952,49.2701606 32.6284952,49.5154931 L32.6284952,50.0716732 C32.6284952,50.2445211 32.7229342,50.4037781 32.8696459,50.4759143 L32.8940398,50.4881112 L32.952585,50.5173838 L32.8905549,50.5379444 L32.866858,50.5480504 C32.6992374,50.6107775 32.5884195,50.7787466 32.5884195,50.9665793 L32.5884195,51.6133651 C32.5884195,51.8583491 32.7713735,52.0562879 32.995797,52.0562879 L36.214741,52.0562879 C36.4419524,52.0562879 36.6252549,51.8583491 36.6252549,51.6133651 L36.6252549,50.9665793 C36.6252549,50.7787466 36.5126946,50.6107775 36.3454224,50.5480504 Z M33.5230529,49.7632651 C33.5230529,49.6698714 33.6080829,49.594599 33.7112341,49.594599 L35.5125464,49.594599 C35.6177884,49.594599 35.7028185,49.6698714 35.7028185,49.7632651 L35.7028185,50.1323093 C35.7028185,50.2239605 35.6177884,50.3009754 35.5125464,50.3009754 L33.7112341,50.3009754 C33.6080829,50.3009754 33.5230529,50.2239605 33.5230529,50.1323093 L33.5230529,49.7632651 Z M35.733485,51.3621083 C35.733485,51.454805 35.6470611,51.5342593 35.5435614,51.5342593 L33.680219,51.5342593 C33.5767193,51.5342593 33.4920378,51.4565474 33.4920378,51.3621083 L33.4920378,50.9857459 C33.4920378,50.8916553 33.5767193,50.8115041 33.680219,50.8115041 L35.5435614,50.8115041 C35.649152,50.8115041 35.733485,50.8916553 35.733485,50.9857459 L35.733485,51.3621083 Z" id="Fill-20" fill="#C8171E" mask="url(#mask-4)"></path>
                <path d="M31.3951765,52.0536046 L30.4490432,52.0536046 L30.4490432,49.8048392 C30.4473008,49.7170213 30.3765586,49.7149304 30.3434526,49.7135364 C30.2953619,49.7135364 30.2420438,49.7257334 30.1922107,49.7375818 L29.4886221,49.8999752 L29.4886221,49.360174 L30.2298469,49.1719928 C30.2629529,49.1653716 30.2953619,49.1552655 30.3298617,49.146205 C30.4574068,49.1103111 30.5887851,49.0754628 30.7107544,49.0733719 L31.2801768,49.0733719 C31.3540554,49.0754628 31.3951765,49.1183263 31.3951765,49.198129 L31.3951765,52.0536046 Z" id="Fill-21" fill="#C8171E" mask="url(#mask-4)"></path>
                <path d="M9.03674024,22.6438444 C9.3542089,23.101055 8.95937686,23.850992 8.67292325,24.2266574 C8.36451516,24.6333379 7.50550281,24.3698842 7.10579199,24.212718 C6.59352093,24.0112945 6.17987077,23.6941743 6.48479401,23.1700548 C6.50570304,23.1359034 6.61268754,22.864783 6.6262784,22.706223 C6.66286919,22.3044212 6.70747511,21.7750745 7.22845826,22.11624 C7.42465459,22.2110276 6.83850498,23.1902668 6.87126245,23.3132816 C6.90611082,23.4369933 6.99845901,23.4443115 7.12983737,23.485781 C7.67521438,23.1857365 7.1869887,22.1699065 8.00592542,22.3601786 C8.28715178,22.6424504 7.88848641,23.187479 8.12963714,23.3592814 C8.37496967,23.5321294 8.40598472,22.6835715 8.85761961,22.5887839 C8.89560434,22.5804203 9.02140696,22.6215414 9.03674024,22.6438444 M8.90571037,19.0684015 C8.79384709,19.1464618 8.4042423,19.4785668 8.38856054,19.1576133 C8.36451516,18.6923876 8.7401806,18.351222 8.94055874,17.9682384 C9.14720958,17.5667852 9.44376922,17.2200439 9.93687367,17.4061342 C10.283615,17.5389065 10.6610228,17.8560266 10.9401583,18.0961319 C11.1938544,18.320207 11.2659906,18.800766 11.2764451,19.1234619 C11.2952632,19.6040209 11.0886123,20.5919723 10.400357,20.363367 C10.1937062,19.8078839 10.871507,19.6629147 10.5251142,19.1942041 C10.0922974,19.1593557 10.2560848,19.5886877 9.82326798,19.5520969 C9.38522395,19.2806281 9.95778269,18.7404783 9.68004117,18.4181309 C9.45596615,18.426843 9.31622418,18.575297 9.22492145,18.768357 C9.13327023,18.9628109 9.06775529,18.9558412 8.90571037,19.0684015 M13.5816648,20.4215637 C13.7506794,20.3891548 14.2646929,20.4132001 14.3556471,20.5424876 C14.7919488,21.0749707 14.2664353,21.5475146 14.2057992,22.0545584 C13.9866029,22.78045 13.6301041,23.0097523 14.0782541,23.7596892 C14.3765562,24.2576724 14.0402694,25.2146087 13.3746655,25.1438665 C13.150939,24.9647459 13.3610746,24.4768687 13.2059994,24.3507176 C12.3661536,24.2336271 12.3766081,25.7788039 11.213021,25.3107902 C11.192112,25.3045175 11.1401879,25.2442298 11.1349607,25.2215784 C11.0230974,24.749383 11.4127022,24.6678378 11.5113231,24.3615206 C11.3558993,24.1214153 10.9872036,24.1562637 10.8443253,23.9008251 C10.7565074,22.9390101 11.2558845,22.0806947 11.695671,21.3255305 C11.9026703,20.9697286 12.2075935,20.7010477 12.6369255,20.8955016 C13.2059994,21.1512886 12.7784099,21.9528012 13.0216515,22.3389211 C13.7231492,22.3305575 13.3115899,20.9334863 13.5008166,20.4957908 C13.5095287,20.4769726 13.5523922,20.4271395 13.5816648,20.4215637 M11.5698683,23.2007213 C11.3022329,22.8044954 11.780004,22.3270727 11.8869885,21.9392103 C11.9336853,21.8750893 11.9594731,21.7869229 12.069594,21.7803017 C12.1814573,21.7733321 12.090503,21.7698472 12.2866993,21.8890287 C12.4853351,22.0082101 11.8385493,23.5955534 11.5698683,23.2007213 M12.604168,23.4798568 C12.604168,23.4819477 12.604168,23.485781 12.6024256,23.485781 C12.5606075,24.0524155 12.0542607,24.075067 11.9971094,23.8924615 C11.9525035,23.764568 12.2473207,23.1177822 12.5348197,23.2857514 C12.5592136,23.2975998 12.6090468,23.389251 12.6073044,23.4150388 C12.6073044,23.4272358 12.6073044,23.4422206 12.6062589,23.4582508 C12.6062589,23.4666144 12.604168,23.4718417 12.604168,23.4798568 M14.8386456,18.4474035 C14.4284802,18.4613429 13.0108485,18.6679937 12.7076677,18.8335235 C11.9849125,19.2234767 11.6991558,19.6040209 11.2523997,20.2783369 C11.0694457,20.5508512 10.8732494,20.9233803 10.5592656,20.6425024 C10.32613,20.4334122 10.1010095,20.7522748 9.83198007,20.671775 C9.54029921,20.587442 9.55249614,20.3271247 9.43679954,20.106186 C9.27475462,19.7894143 8.89560434,20.1337162 8.6802414,20.1717009 C8.51087832,20.0542619 8.62518098,19.5719604 8.45407547,19.452779 C7.89894092,19.4461578 7.77488072,19.7922022 7.90242576,20.2459279 C8.03519805,20.7250931 7.58844193,21.0010922 7.6211994,21.4579543 C7.7731383,21.6060599 8.00383452,21.5565752 8.16309157,21.4579543 C8.37287877,21.550651 8.45024215,21.7924987 8.5199389,21.9890435 C8.63005975,22.3180121 8.77642291,22.1409824 9.03674024,22.1301794 C10.3662056,22.0719826 9.44063286,23.7147348 9.26430011,24.3559449 C9.16986102,24.7026861 9.03883114,25.2027603 9.2301487,25.5390471 C9.34549681,25.7470918 9.6730715,26.3806352 9.73893492,26.5200287 C10.0417673,27.0354361 11.5315351,27.7581913 11.0129914,26.6301496 C10.6746137,25.8979853 9.9919341,25.4512292 10.122964,24.5699139 C10.2766453,23.5370081 10.4665689,22.7787076 10.8938099,21.8283925 C11.2475209,21.047092 11.9835185,20.3940335 12.6404103,19.8782776 C12.9658941,19.6245815 13.3025294,19.4130519 13.728028,19.4078246 C14.155966,19.4025974 14.6128281,19.5541878 15.0247359,19.3747187 C15.2111747,19.1199771 15.0369328,18.6429029 14.8386456,18.4474035 M9.91631313,21.914468 C9.68352601,21.6597264 10.1560699,20.919547 10.3923419,21.3816364 C10.4247509,21.6907414 10.1299336,21.9907859 9.91631313,21.914468" id="Fill-22" fill="#C8171E" mask="url(#mask-4)"></path>
                <path d="M52.7816567,7.01072563 C51.7316753,6.41760635 50.6555576,5.96074421 49.4613039,5.75060853 C48.8803816,5.64676038 48.3165349,6.90966536 48.9009421,7.25048243 C49.1337292,7.38534562 50.0471051,7.34701242 50.0126052,7.73487479 L50.0126052,7.73696569 C49.9714841,7.97985884 49.0765779,7.51986034 48.3733378,7.91120755 C48.3301258,7.93316202 48.2994592,7.95616195 48.2764593,7.97532855 C48.0666721,8.11646445 47.8920818,8.37120605 47.695537,8.55067516 C47.4955073,8.73676546 47.2076598,9.15250653 46.8905396,9.09884004 C46.635101,9.05737048 46.1987994,8.64197789 46.228072,8.58552353 C46.3437686,8.36075154 46.6678585,8.50223592 46.8678881,8.24191859 C47.2334476,7.77146558 47.1557357,7.2212098 47.3644774,6.70405997 C47.5854161,6.14578906 48.4852011,6.30365218 48.4953071,5.50074571 C48.5008828,5.17491344 48.1938687,4.98882313 47.9711876,4.76962688 L47.6934461,4.57099116 C47.5610222,4.49014294 47.0128574,4.49711261 47.1006753,4.90379311 C47.1435388,5.10242882 47.502477,5.65129067 47.1421448,5.74015402 C46.6542676,5.8624718 45.9768153,5.64536645 45.5039229,5.5244426 C45.4216807,5.50423054 44.8303039,5.29514032 44.7403951,5.30907966 C44.666168,5.31918569 44.6041379,5.3404432 44.5644108,5.37773096 C44.367866,5.57671516 44.3835478,5.9265928 44.5455927,6.11965278 C44.5490775,6.12522852 44.5504715,6.12662245 44.5539563,6.13010729 C44.5612744,6.13986484 44.5901986,6.16216779 44.6041379,6.16774353 C44.7090315,6.19527375 45.0955,6.21792519 45.1024697,6.21792519 C45.3251507,6.21653125 45.7147555,6.30609157 45.9987698,6.42980328 L45.9987698,6.42806087 C46.3078748,6.57268161 46.4765409,6.68349943 46.1423451,6.78665061 C46.1350269,6.78839302 46.1301481,6.79013544 46.1235269,6.79187786 L46.1200421,6.79187786 C45.6332103,6.95915004 44.7606071,6.53016659 44.2783057,6.77480216 C44.2626239,6.78316577 44.2284725,6.80755963 44.2228968,6.81975656 C44.1800333,6.89398359 44.0455186,7.16614937 44.2005938,7.24908849 C44.3473054,7.3281943 44.5539563,7.37280021 44.6727892,7.38534562 C44.7696677,7.39370923 45.3854384,7.3815123 45.6736345,7.37175476 C45.7558766,7.36792144 45.8680884,7.33516397 45.8938762,7.32470946 C45.9471942,7.30205802 46.0026031,7.28184596 46.0660271,7.27487629 C46.2733749,7.24386124 46.4451774,7.28289141 46.3507383,7.53519362 C46.2322539,7.84848048 45.0934091,8.1624643 44.7954555,8.09032817 C44.495411,8.01784356 44.1591242,8.41372106 44.1490182,8.47435723 C44.0957002,8.75244723 44.1211395,9.05737048 43.9922005,9.35114225 C43.8228375,9.74597429 43.468081,10.2822907 43.661141,10.7199863 C43.7130651,10.8649555 44.5975168,10.907819 45.6129983,11.0493034 C45.6819981,11.057667 45.7509978,11.0698639 45.8196491,11.078576 C46.4629501,11.175106 47.13866,11.3183328 47.673234,11.5493775 C47.8802333,11.6385893 48.0527328,11.7075891 48.1959596,11.762998 C48.9350935,12.136921 49.695485,12.6108589 49.8160604,12.7474645 C50.4025584,13.4287502 51.3110555,14.545989 51.6591907,14.0682178 C51.6351453,13.5904466 51.3608886,13.2419629 51.1577226,12.8356309 C51.0737381,12.6617375 51.3061767,12.5854196 51.397131,12.4679806 C51.738645,12.0257547 51.8264629,11.3563175 51.9404171,10.8266223 C52.0369471,10.3857904 52.0993256,9.93554943 52.2143253,9.49924782 C52.347446,8.99534038 51.663024,8.65417482 51.2162679,8.52662978 C51.1577226,8.50746318 51.0503897,8.39734233 51.0611927,8.36249395 C51.1437833,8.00390421 51.7992812,8.29384266 52.2059617,8.55067516 C52.3627793,8.64929605 52.7663235,8.62838703 52.8506565,8.48481174 C52.9768076,8.26596397 53.0597467,7.99379819 53.1712615,7.82129875 C53.4385485,7.40033042 53.1217768,7.20448258 52.7816567,7.01072563 M44.656062,10.2627756 C44.9519247,10.3903207 45.9095579,9.19780941 45.3596506,8.82318942 C44.8076524,8.45066033 44.3608963,10.1355791 44.656062,10.2627756 M46.0851937,9.74214097 C46.1904358,9.64282311 46.3664201,9.51806595 46.6852827,9.78361053 C46.700616,9.79580746 46.7420855,9.86968601 46.7455704,9.89059503 C46.8734639,10.8325465 45.4140141,10.4161085 46.0851937,9.74214097 M49.0093206,8.52662978 C49.1128202,8.24679736 49.5365764,8.40187261 49.5940762,8.64197789 C49.598955,8.66044753 49.5595763,8.70958373 49.5400613,8.71097767 C49.3522285,8.74582604 49.1901836,8.75244723 49.0180326,8.59179624 C49.0093206,8.58691747 49.0058357,8.54056913 49.0093206,8.52662978 M47.8419001,11.0527882 C48.1297477,11.2353937 48.7765334,11.057667 48.7751395,10.6509865 C48.7695638,9.96307965 47.6990218,9.8871102 47.3989773,10.394154 C47.3282351,10.5457444 47.5491738,10.8663494 47.8419001,11.0527882 M48.8284575,9.7543379 C48.6922004,9.69370174 48.1973535,9.43199047 48.2579897,9.22533963 C48.3175804,9.06294622 48.593928,8.96118897 49.1406989,9.32674839 C49.1626534,9.34068774 49.2006381,9.44244498 49.1957593,9.47694487 C49.1713655,9.69370174 49.1316383,9.89547381 48.8284575,9.7543379 M50.5248762,12.052588 C50.7625421,11.731983 50.7590573,11.3800144 50.4475128,11.121788 C50.421725,11.1012275 50.3952403,11.0803184 50.3663161,11.0628942 C50.2370287,10.9715915 50.0976352,10.9262886 49.9683477,10.8562434 C49.888545,10.8147738 49.8007271,10.7875921 49.695485,10.801183 C49.4027587,10.8353344 49.1612595,11.0235156 49.1678806,11.3371509 C49.1797291,11.8888006 49.9233933,12.1407544 50.4039524,12.1201938 C50.4283462,12.1201938 50.5091945,12.0731485 50.5248762,12.052588 M51.2058134,10.5976685 C51.0904653,10.928728 50.199044,10.340836 50.2161197,9.92265554 C50.2182106,9.90801922 50.240165,9.86968601 50.2485286,9.86794359 C50.5234823,9.83170129 51.3232524,10.2575484 51.2058134,10.5976685 M50.3663161,9.02984026 C50.4576189,8.49038748 51.1458742,9.07130983 50.9803444,9.42815715 C50.9716323,9.44732375 50.9148295,9.47520245 50.9008901,9.47171761 C50.8074965,9.44244498 50.7405876,9.3821573 50.6768151,9.31803629 C50.5869063,9.22673356 50.3631798,9.05074929 50.3663161,9.02984026 M51.6473423,7.83175326 C51.6372362,7.82826842 51.5884485,7.78470796 51.5731152,7.76623832 C51.2075558,7.34143668 50.4405432,7.04592249 49.8819238,7.0093317 C49.8526511,7.00758928 49.7954998,6.99539235 49.7592575,6.98180149 C49.7592575,6.98180149 49.7251061,6.95740763 49.7233637,6.95461976 C49.6076671,6.82672623 49.4285465,6.32107637 49.8404542,6.45245473 C50.2920891,6.59533305 50.2903467,6.62774203 50.6231486,6.74727195 C50.9266779,6.85565038 51.4201309,7.01421047 51.6867209,7.14210399 C51.6971754,7.14558883 51.7058875,7.1525585 51.7145996,7.15534637 C51.7351602,7.16614937 51.7522359,7.17660388 51.76966,7.18496749 L51.7644328,7.18496749 C51.8107811,7.21284619 51.8564325,7.24177033 51.8975536,7.28184596 C52.25231,7.60384491 52.1282498,7.95755588 51.6473423,7.83175326" id="Fill-23" fill="#C8171E" mask="url(#mask-4)"></path>
                <path d="M67.7923139,25.2870585 C67.7543292,25.1246651 67.6334053,24.688712 67.6198144,24.4043492 L67.6198144,24.4078341 C67.6041327,23.6610335 67.425012,23.0114598 67.3249972,22.2747653 C67.2814368,21.9545087 67.1078919,20.7640884 67.6647688,20.7752399 C67.6975263,20.7752399 67.7992836,20.6525736 67.8027684,20.6149374 C67.8526016,20.0287877 67.4717089,19.797743 66.9507257,20.0092727 C66.6611357,20.1284541 66.495606,20.1667873 66.2196069,19.9876667 C66.1607131,19.947591 65.597215,19.6287284 65.082156,19.2830326 C64.7542329,19.0683666 63.7579179,18.3076267 63.7579179,18.3076267 C63.3041921,18.0368548 62.8504663,17.348948 62.5817854,18.1340818 C62.9302691,18.8334886 63.714706,19.0833514 64.2527648,19.5705317 C64.5169155,19.8029703 64.69743,20.3096656 64.1590227,20.1284541 C63.6317668,19.9406214 63.0302839,19.2924417 62.707588,19.1080938 C62.4061496,18.9321095 61.7060458,18.8645037 61.9475451,19.4178958 C62.0904234,19.7461675 62.3524831,20.0354089 62.6783154,20.1890903 C62.8595269,20.2716809 63.4937673,20.4783317 63.531752,20.623301 C63.6300244,20.8247245 63.5871609,21.3317683 63.4421917,21.5091466 C63.2076622,21.7973426 62.5748157,21.3373441 62.2716349,21.0989812 C62.2542107,21.0836479 62.1217869,20.9989664 61.9405754,20.8923304 C61.7426366,20.7714065 61.306335,20.5682405 61.0129117,20.4333773 C60.8644577,20.3664685 60.5539587,20.2577415 60.4630044,20.2305598 C60.1423994,20.1357722 59.1265694,19.8838185 59.3262506,20.6041344 C59.3300839,20.6149374 59.3558717,20.6525736 59.3889776,20.676619 C59.4924773,20.7491036 59.7388553,20.9094061 60.0179907,21.0627389 C60.2831868,21.2094506 61.5056677,21.5854645 61.9541662,21.8266152 C62.3751346,22.0545236 62.8626633,22.1684777 63.2216015,22.5061585 C63.371101,22.6476428 63.4268584,22.7713546 63.4578735,22.9027329 C63.4888885,23.0320204 63.6457062,23.8185481 63.6457062,24.0973351 C63.6457062,24.8110297 63.4631007,25.6526179 63.2958285,26.1927677 C63.1236776,26.7492961 62.6302246,27.6703386 63.531752,27.7030961 C64.4297945,27.737596 64.3973855,24.7824541 64.4486127,24.1321835 C64.4649914,23.9338962 64.5336427,23.0438688 64.9232475,23.3700496 C65.5752605,23.9161236 65.4038065,24.8005752 65.4832608,25.5299516 C65.5059122,25.7390419 65.6888662,25.7958447 65.8697292,25.8509051 C65.9282745,25.8686778 66.162804,25.8585718 66.1917282,25.8150113 C66.3405307,25.5769969 66.3614398,25.2773009 66.345758,25.0026958 C66.3196217,24.5284094 66.0938043,23.8662904 66.281637,23.3923525 C66.4130153,23.1198383 66.6165298,23.028884 66.7127113,23.3592466 C66.7158477,23.3756253 66.719681,23.3857313 66.7249083,23.3958374 C66.7510445,23.4962007 66.7942565,23.8077451 66.7921656,23.8732601 C66.7799687,24.4078341 66.9838317,25.8216325 67.0113619,25.8585718 C67.2214976,26.1356163 67.6062236,26.2886007 67.8766469,25.9195564 C67.9696921,25.8080416 67.8268138,25.4511943 67.7923139,25.2870585 M66.6301207,21.5924342 C66.5959693,22.1667353 65.9868198,22.5545977 65.5076547,22.8215362 C65.0368532,23.0856869 64.4127188,22.4664313 64.3078252,22.0733417 C64.2541587,21.8834181 64.2057195,21.2840261 64.3750826,21.1477689 C64.5733698,20.9902543 64.8542477,21.114663 65.0525349,20.9491332 C65.0713531,20.9372848 65.0919136,20.847376 65.0884288,20.8229821 C65.0211714,20.2577415 65.8801837,20.6131949 66.3300762,20.9696938 C66.4659849,21.0749359 66.635348,21.4871921 66.6301207,21.5924342" id="Fill-24" fill="#C8171E" mask="url(#mask-4)"></path>
                <path d="M41.392303,49.0721173 L38.171268,49.0721173 C37.9454506,49.0721173 37.7624966,49.2700561 37.7624966,49.5153886 L37.7624966,50.4562946 C37.7624966,50.6977938 37.9454506,50.8964296 38.171268,50.8964296 L39.4352184,50.8985205 L40.7023052,50.8985205 C40.8044109,50.8985205 40.8922288,50.9762323 40.8922288,51.0685805 L40.8922288,51.3654886 C40.8922288,51.4567914 40.8075473,51.5341548 40.7023052,51.5341548 L38.8577809,51.5341548 C38.7835539,51.5341548 38.7215238,51.4947761 38.6901603,51.4383217 L37.7624966,51.4383217 L37.7624966,51.6174424 C37.7624966,51.8582446 37.9454506,52.0561834 38.171268,52.0561834 L41.392303,52.0561834 C41.616378,52.0561834 41.7989835,51.8582446 41.7989835,51.6132606 L41.7989835,49.5153886 C41.7989835,49.2700561 41.616378,49.0721173 41.392303,49.0721173 Z M40.8922288,50.1858713 C40.8922288,50.2806588 40.8075473,50.3587192 40.7023052,50.3587192 L38.8595233,50.3587192 C38.7542813,50.3587192 38.6699482,50.2806588 38.6699482,50.1858713 L38.6699482,49.7631605 C38.6699482,49.6701154 38.7542813,49.5944944 38.8595233,49.5944944 L40.7023052,49.5944944 C40.8044109,49.5944944 40.8922288,49.6736002 40.8922288,49.7631605 L40.8922288,50.1858713 Z" id="Fill-25" fill="#C8171E" mask="url(#mask-4)"></path>
                <path d="M43.3453799,52.0563227 L46.5664149,52.0563227 C46.7904899,52.0563227 46.9730954,51.858384 46.9730954,51.6133999 L46.9730954,50.6724939 C46.9730954,50.4289038 46.7904899,50.2309651 46.5664149,50.2309651 L45.3024645,50.2309651 L44.0336353,50.2309651 C43.931878,50.2309651 43.8458025,50.1511623 43.8458025,50.0588141 L43.8458025,49.7632999 C43.8458025,49.6699063 43.9283932,49.5946338 44.0336353,49.5946338 L45.878508,49.5946338 C45.9523866,49.5946338 46.0161591,49.6326185 46.0471742,49.6890729 L46.9730954,49.6890729 L46.9730954,49.5120432 C46.9730954,49.2688015 46.7904899,49.0722567 46.5664149,49.0722567 L43.3453799,49.0722567 C43.1213049,49.0722567 42.9366085,49.2701955 42.9366085,49.515528 L42.9366085,51.6133999 C42.9366085,51.858384 43.1213049,52.0563227 43.3453799,52.0563227 Z M43.8458025,50.9415233 C43.8458025,50.8481297 43.9283932,50.7686754 44.0336353,50.7686754 L45.8764171,50.7686754 C45.9816592,50.7686754 46.0677347,50.8481297 46.0677347,50.9415233 L46.0677347,51.365628 C46.0677347,51.4579762 45.9816592,51.5342941 45.8764171,51.5342941 L45.8764171,51.5329002 L44.0336353,51.5329002 C43.931878,51.5329002 43.8458025,51.4534459 43.8458025,51.3621432 L43.8458025,50.9415233 Z" id="Fill-26" fill="#C8171E" mask="url(#mask-4)"></path>
                <path d="M4.88250075,38.8040796 C4.87100079,38.5793076 4.88947043,38.0541426 4.89678858,37.6979923 C5.11110607,37.724477 5.36863553,37.7429467 5.6303468,37.7506133 L5.63174073,37.7809314 C5.40034755,38.0607638 5.25224197,38.442702 5.27175706,38.8556552 C5.28848428,39.2159873 5.47736245,39.4452896 5.79169476,39.4296078 C6.01716372,39.4201988 6.14958753,39.31879 6.29943553,39.106215 C6.52281359,38.7890948 6.65558588,38.4155202 6.91869108,38.0708698 C7.21559921,37.6899771 7.50971946,37.5951896 7.87179404,37.5788108 C8.22794439,37.5606897 8.92630575,37.7286588 8.98763889,39.0626545 C8.99913885,39.3125173 9.00576004,39.7066524 8.98554798,40.0394543 C8.79876071,39.9972878 8.5293828,39.9537273 8.27882302,39.9202729 L8.27742908,39.8889094 C8.47083754,39.7118796 8.62173099,39.5045318 8.600125,39.0382606 C8.57886749,38.5956863 8.32586832,38.3876415 8.0652025,38.3998385 C7.75017322,38.4134293 7.57418895,38.4677928 7.19922047,39.2327145 C6.73120685,40.1924387 6.43569266,40.2300749 6.06142115,40.2488931 C5.61083171,40.2687566 4.94034905,40.0509543 4.88250075,38.8040796" id="Fill-27" fill="#C8171E" mask="url(#mask-4)"></path>
                <path d="M7.55941324,44.0803321 C7.0959299,44.1517712 6.04350909,44.3451797 5.60651051,44.5072246 C5.58420756,44.2702557 5.57026821,44.1845287 5.54134406,44.0116808 C5.51938959,43.8782115 5.49848056,43.7538028 5.43157169,43.4624705 C5.9919335,43.418213 6.82759744,43.3042588 7.26145966,43.2314258 C7.22452039,42.9397449 7.20709621,42.797215 7.17015693,42.5762764 C7.13252069,42.3535953 7.0917481,42.1399748 7.03877857,41.8953392 C6.38955342,42.0106873 5.82640374,42.1107021 5.23432991,42.2793683 C5.21446634,42.0542478 5.18623916,41.8810514 5.16916345,41.7838244 C5.14651201,41.64234 5.12699692,41.5245525 5.06008805,41.2380989 C5.61661654,41.2081293 6.59411335,41.0704783 7.03320283,40.9983421 C7.46218628,40.926206 8.869712,40.7289642 9.00039339,40.5055862 L9.02409028,40.5003589 C9.0516205,40.743252 9.07322649,40.8969334 9.10040822,41.0704783 C9.12968085,41.2489019 9.16557467,41.4266286 9.2077412,41.6102795 C8.80907583,41.6001735 8.23512316,41.6953095 7.49006498,41.8207637 C7.52456487,42.1378839 7.54651934,42.2664744 7.58450407,42.4929888 C7.62144334,42.7149729 7.63886753,42.8212604 7.71309456,43.1561533 C8.60834921,43.0014265 9.02130241,42.9442752 9.37605883,42.7205486 L9.39452847,42.722988 C9.40986175,42.9219722 9.43321016,43.0655475 9.47119489,43.2927589 C9.50011903,43.4642129 9.54333101,43.6931667 9.57957332,43.8374389 C9.05336291,43.856257 8.09956299,43.995999 7.55941324,44.0803321" id="Fill-28" fill="#C8171E" mask="url(#mask-4)"></path>
                <path d="M6.69705544,48.2144989 C6.63920715,48.030848 6.58937398,47.870197 6.51201059,47.6788794 C6.92182744,47.5332132 7.50553766,47.1718356 7.78188524,46.9955029 C7.73623387,46.8062762 7.68814312,46.6250647 7.63412815,46.4522168 C7.58046165,46.2800658 7.51076491,46.0915361 7.46476506,45.9615517 C7.12847828,45.9615517 6.40781396,45.9991879 6.04992119,46.1751722 C5.99381531,45.9699153 5.97604264,45.869552 5.93004279,45.7221434 C5.88020962,45.5607954 5.83211887,45.4196595 5.76799787,45.2565692 C6.01507282,45.3116296 6.46008652,45.3625082 6.64617682,45.37819 C7.03403919,45.4081596 7.58011317,45.4444019 8.00805117,45.4628715 C8.39382264,45.4809927 9.01377516,45.4994623 9.49398572,45.5036441 C9.63268224,45.506432 9.85849968,45.515841 9.98186292,45.430811 L10.0156658,45.4210535 C10.075605,45.6109771 10.1261352,45.7587342 10.1686502,45.8772186 C10.2275439,46.0465817 10.290271,46.2107176 10.3631041,46.3863533 C10.247756,46.4393229 10.0376203,46.5633831 9.85501485,46.6790797 C9.49050088,46.906988 9.03991144,47.2025022 8.69944286,47.4318045 C8.12758108,47.8154851 7.80453668,48.0395601 7.52052246,48.2510897 C7.39890164,48.3396046 7.10269048,48.5671644 6.86119127,48.8173757 C6.79567633,48.5643766 6.749328,48.3880438 6.69705544,48.2144989 M9.32288022,45.9800213 L9.31625903,45.9563244 C8.80085162,45.9385518 8.35270156,45.9371578 7.87771826,45.9465669 C7.91047573,46.0992028 7.93974836,46.2148994 7.98261186,46.3535959 C8.04359651,46.5504892 8.07496004,46.6292465 8.12967199,46.7707309 C8.5272919,46.5236559 8.94512387,46.2455659 9.32288022,45.9800213" id="Fill-29" fill="#C8171E" mask="url(#mask-4)"></path>
                <path d="M10.1669426,51.5070776 C9.91777676,51.6199863 8.88487104,52.0796363 8.44891792,52.3274082 C8.34611522,52.0848636 8.22658531,51.8642734 8.09799482,51.6698195 C8.41372106,51.1885635 9.02426452,50.3358238 9.29852121,49.9619008 L10.126867,48.8303742 L10.1192003,48.811556 L9.06573409,49.2938575 C8.86570444,49.3855087 7.80701092,49.9416887 7.46340598,50.2089757 C7.41183039,50.0681883 7.36687599,49.9517948 7.30623982,49.8218103 C7.24978546,49.6967047 7.17904327,49.5569627 7.1142253,49.4426601 C7.698284,49.3353271 9.12358238,48.7038746 9.39888452,48.5787689 C9.60902019,48.4825874 10.479184,48.1131947 10.7666831,47.8096654 L10.7945618,47.7978169 C10.8558949,47.9612558 10.9332583,48.1452552 11.0161974,48.3268152 C11.100879,48.5153449 11.1873029,48.6902837 11.2653633,48.8303742 C11.0580155,49.0631613 10.598017,49.615508 10.3802147,49.9287948 C9.95401907,50.5400353 9.6794139,50.9136098 9.44383891,51.2537299 L9.45150556,51.2715026 L10.1543972,50.9508976 C10.5596838,50.7658527 11.5992107,50.2218696 11.7992403,50.0016279 C11.8344372,50.107567 11.9044824,50.2765816 11.9616337,50.4009903 C12.0393456,50.5717473 12.0463153,50.587429 12.1452847,50.7637618 C11.6319681,50.8801554 10.4526993,51.3756992 10.1669426,51.5070776" id="Fill-30" fill="#C8171E" mask="url(#mask-4)"></path>
                <path d="M11.5329639,55.667764 C11.3949644,55.7475668 11.1165259,55.9085662 10.8467995,56.1148686 C10.4498765,55.6876276 10.2313773,55.3962952 9.94771151,54.9484936 C9.25980467,53.859482 9.39118303,53.0112727 10.6572244,52.2108056 C11.4364339,51.7180496 12.5568091,51.4225354 13.4980636,52.9112578 C13.7545476,53.3189838 14.0295012,53.8075579 14.1560008,54.051845 C13.8779108,54.1253751 13.6594115,54.212496 13.4029275,54.3302835 L13.3795791,54.2916018 C13.4799424,53.9619362 13.4210487,53.5134377 13.1412163,53.069121 C12.7038692,52.3794717 11.9842503,52.4878501 11.1653136,53.005 C10.0201961,53.7274067 10.0142719,54.2651171 10.4167706,54.9035392 C10.5997245,55.1927807 10.7760573,55.1251749 10.932178,55.0272509 L11.2939041,54.7986456 C11.4601308,54.693752 11.6608574,54.5658585 11.7950237,54.3111169 L11.8239478,54.3017079 C11.9068869,54.4550407 12.0079472,54.6278886 12.1055227,54.780873 C12.2320223,54.9809026 12.268613,55.0401448 12.3999914,55.2150837 C12.2013557,55.2893107 11.7971146,55.507113 11.5329639,55.667764" id="Fill-31" fill="#C8171E" mask="url(#mask-4)"></path>
                <path d="M15.0429616,58.2711813 C14.68019,58.5705288 13.8755411,59.2758598 13.5828148,59.6386314 C13.4420274,59.4452229 13.385573,59.3786625 13.2733613,59.2437993 C13.1841495,59.1389057 13.1039982,59.0444666 12.8963019,58.8259673 C13.3556034,58.5039684 14.016677,57.978455 14.3526153,57.6947892 C14.1724493,57.4613051 14.0846314,57.3501388 13.9389652,57.1772909 C13.7939959,57.0051399 13.6479813,56.843792 13.4782697,56.6601411 C12.9778471,57.09017 12.5471212,57.4651384 12.1223196,57.9125915 C11.9916382,57.7278952 11.8794264,57.5954714 11.8153054,57.5177595 C11.7219118,57.4079871 11.6452454,57.3184268 11.4417309,57.1044578 C11.9052142,56.7970952 12.6736208,56.1788851 13.0161803,55.8910375 C13.3468913,55.6119021 14.4557665,54.7208292 14.4543726,54.4629513 L14.4717968,54.4465725 C14.6202508,54.6420719 14.7164323,54.7640412 14.8296895,54.897162 C14.9464316,55.03551 15.0673554,55.1710702 15.1966429,55.3055849 C14.8488561,55.5003873 14.4041909,55.8788406 13.8277989,56.3639299 C14.0198134,56.6200654 14.1048434,56.7193833 14.2526005,56.8950191 C14.3982667,57.067867 14.4672665,57.1480183 14.701796,57.399972 C15.3938847,56.8072012 15.7186715,56.5486263 15.9085951,56.1747033 L15.9260193,56.1666881 C16.0420644,56.330824 16.1340641,56.4409448 16.2839121,56.6186715 C16.3968208,56.7521408 16.5494567,56.9228978 16.6546987,57.0302308 C16.2121244,57.314245 15.4642784,57.9233945 15.0429616,58.2711813" id="Fill-32" fill="#C8171E" mask="url(#mask-4)"></path>
                <path d="M16.412398,62.2692304 C16.2695197,62.1406399 16.145111,62.0277312 15.9809752,61.90158 C16.2587167,61.5673842 16.5772308,60.9575377 16.7242909,60.6655083 C16.5890793,60.5261148 16.4542161,60.3961304 16.3197014,60.2748581 C16.1865806,60.1525403 16.0304599,60.0270862 15.9252178,59.9392683 C15.6352793,60.1089798 15.0344934,60.512524 14.8166911,60.8453259 C14.6630098,60.6975688 14.5981918,60.6209024 14.4811013,60.5167058 C14.3570411,60.4024031 14.2423899,60.3062216 14.1047389,60.1981917 C14.3451926,60.1183889 14.7550095,59.9382228 14.9219332,59.8556322 C15.2725078,59.6834812 15.7586426,59.4357093 16.1374444,59.2328918 C16.4775645,59.0520287 17.0222445,58.7516358 17.4351977,58.5080457 C17.55647,58.4414853 17.7554542,58.3351977 17.8185298,58.1989406 L17.8429237,58.1710619 C17.9892868,58.3066221 18.1105592,58.4073339 18.2060437,58.4867881 C18.3440432,58.6031817 18.4820428,58.7129541 18.6318908,58.8251658 C18.5618456,58.9300594 18.4440581,59.1443769 18.3454372,59.3356945 C18.1485439,59.7204205 17.9119234,60.2027219 17.7355907,60.5738571 C17.4407735,61.1959005 17.2755922,61.5523994 17.1396835,61.8792771 C17.0807898,62.0186706 16.9420933,62.3650634 16.8629875,62.7027441 C16.6772456,62.5190932 16.5465642,62.3925936 16.412398,62.2692304 M17.5313792,59.0077713 L17.5129096,58.9886047 C17.0609262,59.2370736 16.6758517,59.463588 16.2716106,59.7162387 C16.3796405,59.8291474 16.4622312,59.9148744 16.5688672,60.0103589 C16.7208061,60.1504494 16.7901544,60.202025 16.9089873,60.2968126 C17.1257442,59.88142 17.3421526,59.4290881 17.5313792,59.0077713" id="Fill-33" fill="#C8171E" mask="url(#mask-4)"></path>
                <path d="M17.9053719,63.4317372 C17.7551755,63.3209194 17.6527212,63.2494802 17.4349189,63.1010261 C17.9179174,62.6040884 18.4333248,61.9269845 18.7148996,61.5513191 C19.1170498,61.0129117 19.6937904,60.2866717 19.7809113,59.8475822 L19.7924112,59.8319004 C19.9405168,59.9577031 20.0670164,60.0612027 20.2098947,60.1695811 C20.3555609,60.2776111 20.5228331,60.3887774 20.7009083,60.5124891 C20.3214095,60.8766546 19.6523208,61.7778335 19.5164121,61.9586965 C19.2926856,62.2597865 18.6448544,63.1118291 18.3040373,63.7537361 C18.0914622,63.5801912 17.9952807,63.4989945 17.9053719,63.4317372" id="Fill-34" fill="#C8171E" mask="url(#mask-4)"></path>
                <path d="M22.5864143,64.0531533 C22.3086727,64.5330154 22.0023556,65.0749076 21.8887499,65.2707554 C21.5489782,65.857602 21.0140557,66.1106012 19.7260599,65.5422242 L19.8497717,65.1822406 C20.3735427,65.4115429 20.6889204,65.4143307 21.0422829,64.9031051 C21.1708734,64.7180603 21.4618573,64.2266982 21.6772203,63.8559116 C22.0480069,63.2147015 22.6564595,62.274144 22.6627322,61.8385393 L22.6791109,61.8131 C22.8620649,61.9322815 23.0209734,62.0322963 23.1725639,62.1187203 C23.3234573,62.2065381 23.4719114,62.2856439 23.6569562,62.3786891 C23.2670029,62.8271876 22.8087469,63.6684273 22.5864143,64.0531533" id="Fill-35" fill="#C8171E" mask="url(#mask-4)"></path>
                <path d="M23.5740171,66.8648593 C23.3332149,66.732784 23.2234425,66.6707539 23.1223822,66.6226631 C22.9547615,66.5400725 22.8401104,66.4884969 22.6000051,66.3843003 C22.9822918,65.8051204 23.3624875,65.0454259 23.5698353,64.6216697 C23.8660465,64.0198383 24.2971208,63.1988107 24.3023481,62.7503121 L24.3089692,62.7346304 C24.4779838,62.8315088 24.6208622,62.9071298 24.7836041,62.9872811 C24.9459975,63.0677808 25.1299969,63.1437502 25.3293296,63.235053 C25.0219669,63.6619455 24.5330443,64.6725483 24.4330295,64.8746688 C24.2688936,65.2109556 23.7904255,66.1699828 23.5736686,66.8648593 L23.5740171,66.8648593 Z" id="Fill-36" fill="#C8171E" mask="url(#mask-4)"></path>
                <path d="M27.0881269,68.271026 C26.9076123,68.2016777 26.7497492,68.1438294 26.5504165,68.087375 C26.6870221,67.6740734 26.7595067,66.9906968 26.7894763,66.6641676 C26.6124466,66.5843648 26.4395987,66.5122287 26.2702356,66.4477592 C26.1008725,66.3857291 25.9095549,66.3250929 25.7795705,66.2822294 C25.5722227,66.5456831 25.1599665,67.1405448 25.0794667,67.5298011 C24.8832704,67.4496498 24.7944071,67.4005136 24.6487409,67.3461502 C24.4908777,67.2876049 24.3486964,67.2391657 24.1810757,67.1893325 C24.3765751,67.0269391 24.6905589,66.708425 24.8160131,66.570077 C25.0780728,66.2843203 25.4415413,65.8745035 25.7171919,65.5479742 C25.9691457,65.253854 26.3646747,64.7746889 26.6612343,64.3969325 C26.7476583,64.290645 26.8933245,64.1164031 26.903779,63.9679491 L26.9159759,63.9334492 C27.1027632,64.0055853 27.2508688,64.05507 27.3700502,64.0947971 C27.5411557,64.1540394 27.7087763,64.2028271 27.8899879,64.2526603 C27.8628062,64.375675 27.8314426,64.6189166 27.8105336,64.8325372 C27.7680186,65.2611721 27.7251551,65.7981855 27.6965794,66.2066084 C27.6495341,66.8941668 27.6279281,67.2869079 27.6209585,67.6406189 C27.6174736,67.7897699 27.6157312,68.1668293 27.6652159,68.5086918 C27.4237167,68.4044952 27.256793,68.3358439 27.0881269,68.271026 M26.9323546,64.8234766 L26.9090062,64.8161584 C26.5796891,65.2109905 26.3047355,65.5647014 26.0203728,65.9473366 C26.1618571,66.0128515 26.2702356,66.0595483 26.4040533,66.1121694 C26.5974618,66.1843055 26.6810979,66.2093963 26.8246732,66.2529568 C26.8745063,65.7873825 26.9110971,65.2869599 26.9323546,64.8234766" id="Fill-37" fill="#C8171E" mask="url(#mask-4)"></path>
                <path d="M32.3718718,67.5842691 C32.1603421,68.4882359 31.649465,69.5145204 30.0269249,69.1346731 C29.0417614,68.90328 28.2277034,68.4126149 28.6180052,66.7517415 C28.8455651,65.7846992 29.3519119,64.7744449 30.9681794,65.1542922 C32.3537506,65.4804729 32.6733102,66.3060308 32.3718718,67.5842691 M29.5404416,66.9737256 C29.3257756,67.8877984 29.4268359,68.5774477 30.1189246,68.741235 C30.9336795,68.9311587 31.2609057,68.1662369 31.445602,67.3786637 C31.6198439,66.6381358 31.6898891,65.7397448 30.8995281,65.553306 C30.1032428,65.3682612 29.7429106,66.1119254 29.5404416,66.9737256" id="Fill-38" fill="#C8171E" mask="url(#mask-4)"></path>
                <path d="M37.4660764,66.5313256 L37.4291371,66.5285377 C37.2956678,66.4570985 36.8764419,66.350114 36.3582466,66.3215384 C36.3516255,66.4476895 36.2888984,67.2505959 36.2418531,68.1075174 C36.1955047,68.950151 36.2282622,69.8147391 36.2516106,69.9534356 C36.0038387,69.9269509 35.9355359,69.9182388 35.7170366,69.9067388 C35.5299009,69.8948904 35.3932952,69.8875722 35.1615536,69.8927995 C35.2775986,69.3763466 35.3504317,68.2716532 35.3734317,67.8681091 C35.3971286,67.4405196 35.4270982,66.6682797 35.4427799,66.2699628 C35.0064783,66.2476598 34.4429802,66.2626446 34.275708,66.3549928 L34.2380717,66.3529019 C34.285117,66.1842358 34.3356472,65.9420396 34.3447077,65.7866159 C34.9217968,65.8556156 35.3953861,65.8873277 35.9250814,65.9166003 C36.4986856,65.9472669 37.0534716,65.9786304 37.6221971,65.9692213 C37.5598185,66.1012967 37.5078944,66.3319929 37.4660764,66.5313256" id="Fill-39" fill="#C8171E" mask="url(#mask-4)"></path>
                <path d="M41.4835011,67.7673624 C41.5448343,68.6929352 41.3549107,69.8241133 39.6926433,69.9345827 C38.6834345,70.0004461 37.7599527,69.766962 37.6494833,68.0642706 C37.5860593,67.0745768 37.774589,65.9601259 39.4319775,65.850702 C40.8520487,65.7593993 41.3977742,66.4570637 41.4835011,67.7673624 M38.5963136,68.0095586 C38.6579952,68.9469798 38.9552518,69.5756444 39.6654616,69.5296446 C40.4993831,69.4763266 40.5903374,68.6465869 40.5373679,67.8408925 C40.4875347,67.081895 40.2930808,66.1991857 39.4832046,66.2528522 C38.6663588,66.3068672 38.5391623,67.1261524 38.5963136,68.0095586" id="Fill-40" fill="#C8171E" mask="url(#mask-4)"></path>
                <path d="M45.282113,67.1214479 C45.335431,67.3908258 45.5490515,68.4976101 45.6912329,68.9788661 C45.4340519,69.0259114 45.1929012,69.0938657 44.973008,69.1743654 C44.5764335,68.7575789 43.88086,67.9703542 43.5797701,67.6197796 L42.6639549,66.5565558 L42.6454852,66.5600406 L42.8765299,67.696446 C42.9214843,67.911112 43.2253621,69.0694718 43.4083161,69.461516 C43.2577711,69.4806826 43.1351049,69.5001977 42.9946659,69.5280764 C42.8604997,69.5552581 42.7085608,69.5921974 42.5820612,69.6308791 C42.607152,69.0360174 42.3158196,67.5061739 42.254835,67.2099627 C42.2091836,66.9827514 42.0450478,66.0509059 41.8150486,65.7038161 L41.8087758,65.6752405 C41.9833662,65.6518921 42.180608,65.6173922 42.3757588,65.5769681 C42.5771824,65.5375894 42.7664091,65.4912411 42.9225298,65.4483776 C43.1013019,65.7038161 43.5369066,66.2760264 43.7909512,66.5572528 C44.2924193,67.1106449 44.5924637,67.4626134 44.8733416,67.7699761 L44.8893719,67.7654458 L44.7370845,67.0078422 C44.6475242,66.5715406 44.3530554,65.4368776 44.1822984,65.1918936 C44.2952071,65.1810906 44.4736308,65.151121 44.6071001,65.1249847 C44.7914479,65.087 44.8102661,65.0821212 45.0012351,65.0235759 C45.0005382,65.5518772 45.2193859,66.8144337 45.282113,67.1214479" id="Fill-41" fill="#C8171E" mask="url(#mask-4)"></path>
                <path d="M49.6435958,66.7457476 C49.6899441,66.8976865 49.7812468,67.2057461 49.9227312,67.5141542 C49.4142935,67.8040926 49.0821885,67.9497588 48.579675,68.1226067 C47.3652092,68.5418326 46.5671815,68.2198337 46.0789559,66.8042929 C45.7768205,65.9344775 45.7475479,64.7726328 47.4119061,64.1993771 C47.8663288,64.0436049 48.4061301,63.8878327 48.6744626,63.8209238 C48.6810837,64.1077259 48.7145382,64.3419069 48.7702956,64.6161636 L48.729523,64.6325424 C48.4319179,64.4583005 47.9799345,64.4119522 47.4847392,64.5813153 C46.7114538,64.8510416 46.6515146,65.5751908 46.9679378,66.4923999 C47.4094667,67.7727291 47.9294044,67.9002741 48.643796,67.6549416 C48.9678858,67.5434268 48.9438405,67.3562911 48.8825073,67.1813522 L48.7431138,66.7778081 C48.6807353,66.5927632 48.6023264,66.3679912 48.3845241,66.1787646 L48.3810393,66.148098 C48.5497054,66.1024467 48.7410229,66.0418105 48.9121284,65.9832652 C49.1369004,65.9065988 49.2010214,65.8832504 49.4013996,65.7961295 C49.4292783,66.0066136 49.5481112,66.4495364 49.6435958,66.7457476" id="Fill-42" fill="#C8171E" mask="url(#mask-4)"></path>
                <path d="M54.0081452,62.4448313 C54.2210687,62.8448906 54.4740679,63.3233587 54.6998853,63.7209787 C55.0717175,64.3715978 55.0734599,65.0284896 53.9893271,65.6466997 C52.8515277,66.2973188 52.3458779,66.0160924 51.9339701,65.2947311 C51.8276826,65.1089893 51.5555168,64.6071727 51.3635023,64.270886 C51.2279421,64.0342655 50.7780496,63.1818744 50.4665052,63.0037992 L50.4577931,62.9888144 C50.6045048,62.9170267 50.7864132,62.8218907 50.951246,62.7284971 C51.1115486,62.6347549 51.2422299,62.5605279 51.444699,62.4256647 C51.6004712,62.9246934 52.1367876,63.8509631 52.2747872,64.0931593 C52.6194376,64.6963846 52.8494368,65.0870348 52.9985879,65.2205041 C53.2069811,65.4104277 53.5328134,65.4410943 53.8485396,65.2619736 C54.5911584,64.837869 54.3886894,64.3709008 53.9405393,63.5861155 C53.3129202,62.4869978 53.0930269,62.0642871 52.685998,61.7165003 C52.8044824,61.660743 52.9111184,61.6063795 53.0999966,61.499395 C53.2686627,61.402865 53.3578746,61.3457137 53.4822832,61.2613806 C53.6296919,61.7708638 53.8785092,62.2057715 54.0081452,62.4448313" id="Fill-43" fill="#C8171E" mask="url(#mask-4)"></path>
                <path d="M57.6359303,60.7663944 C57.8018086,60.9828027 58.4789124,61.8853756 58.8176386,62.2568592 C58.606109,62.410889 58.4175793,62.5767672 58.2562313,62.7464788 C57.717127,62.5454037 56.7479938,62.1418596 56.3245861,61.9575117 L55.0341509,61.4041195 L55.0198631,61.4142256 L55.7251941,62.3338741 C55.8579664,62.508116 56.6392669,63.4155675 56.9752052,63.6898242 C56.8487056,63.7720664 56.7465999,63.8414146 56.6309033,63.9306265 C56.5235703,64.0128686 56.4026465,64.1132319 56.305768,64.2020953 C56.069496,63.6570668 55.1376506,62.4094951 54.9536512,62.1683443 C54.8125153,61.9839964 54.2570322,61.2204686 53.897397,61.0071966 L53.8796244,60.9841967 C54.027033,60.8869697 54.1880325,60.7712731 54.3472895,60.6486069 C54.5107284,60.5235012 54.6605764,60.4008349 54.7818487,60.293502 C55.0554084,60.4436984 55.6959215,60.7677883 56.0489355,60.9106666 C56.7420696,61.1891051 57.1658258,61.372756 57.5512488,61.5274828 L57.5662336,61.5163313 L57.0954321,60.9026515 C56.8243117,60.548592 56.0632233,59.6554283 55.8025575,59.511853 C55.898739,59.4515653 56.0461476,59.3473687 56.15592,59.2637326 C56.3043741,59.1504754 56.3186619,59.1382784 56.466419,59.0023698 C56.6974637,59.4780501 57.4449612,60.5151376 57.6359303,60.7663944" id="Fill-44" fill="#C8171E" mask="url(#mask-4)"></path>
                <path d="M60.0940299,61.0821903 C59.9570758,61.2086899 59.8706518,61.2992956 59.6863039,61.4857344 C59.2796234,60.9243272 58.7032314,60.2994959 58.3819294,59.9569364 C57.9240218,59.4648774 57.308948,58.7706978 56.8911161,58.6086529 L56.8785707,58.595759 C57.0277217,58.4720473 57.150388,58.3650628 57.2817663,58.2399571 C57.4152356,58.1158969 57.5532351,57.9730186 57.7083104,57.8186403 C57.9975519,58.2563359 58.7694433,59.0728332 58.924867,59.236969 C59.1799571,59.5112257 59.9068941,60.296708 60.4801498,60.7445096 C60.2710596,60.9250241 60.176272,61.0051754 60.0940299,61.0821903" id="Fill-45" fill="#C8171E" mask="url(#mask-4)"></path>
                <path d="M60.6637311,55.6929594 C60.8515638,56.0243674 61.1484719,56.5321082 61.4039105,56.9781673 C61.660743,57.423878 62.1684837,58.310769 62.3967406,58.6892223 C62.2420138,58.8530097 62.0939082,59.0464181 61.9670601,59.2419175 C61.3321228,58.9450094 60.685337,58.6623891 60.0172938,58.3738446 C59.4966591,58.1546483 59.0028577,57.9410278 58.654374,57.8044222 C58.4407535,57.7211346 58.1438453,57.6259985 57.9978307,57.6280894 L57.9807549,57.6144986 C58.1142242,57.4904384 58.2550116,57.3402419 58.3877839,57.1827272 C58.5285713,57.0227732 58.6620406,56.866304 58.7773887,56.7192439 C58.9017974,56.8304102 59.1262209,56.9624855 59.2833871,57.0527428 C59.5433559,57.2004999 60.0061423,57.412378 60.5093528,57.6333167 C60.8801394,57.7981495 61.1442901,57.9232551 61.4579254,58.0438305 L61.4746527,58.0253609 C61.3192289,57.744483 60.9815482,57.2018939 60.814276,56.9440159 C60.3967925,56.3136089 60.0709603,55.8480346 59.7367644,55.6399899 C59.8489761,55.5323084 59.9399304,55.4389148 60.0493543,55.3193848 C60.152157,55.2015973 60.2350961,55.1095976 60.3344139,54.9702042 C60.4243227,55.2360972 60.5536102,55.4943237 60.6637311,55.6929594" id="Fill-46" fill="#C8171E" mask="url(#mask-4)"></path>
                <path d="M65.2770281,54.9313134 C64.9121657,55.4062967 64.701333,55.7154017 64.4709853,56.0422795 C64.2260013,56.3893692 64.1531682,56.490778 63.7754118,57.0563671 C63.3161103,56.6259897 62.8439149,56.2844756 62.2079321,55.8338862 C61.5524342,55.3710998 60.7505732,54.7650866 60.4662105,54.7877381 L60.4512257,54.7776321 C60.7139824,54.4343756 61.0460874,53.964968 61.2332231,53.7008174 C61.3848136,53.4868484 61.6437369,53.1111829 61.9754934,52.6212148 C62.049372,52.7403963 62.2507956,52.9296229 62.3727649,53.0153499 L62.359174,53.0359105 C62.0908416,53.2296674 61.7507214,53.6387873 61.3938741,54.1416493 C61.6838126,54.4023151 62.2257047,54.7692684 62.4828857,54.95048 C62.7097486,54.629178 62.8853844,54.3723455 63.0627626,54.0064376 C63.1760198,54.1252705 63.3352769,54.2705883 63.483034,54.3814061 C63.1645199,54.6448598 62.9752932,54.9243437 62.8010514,55.1689793 L63.3802313,55.5760082 C63.9283962,55.9645676 64.0573351,55.956204 64.2702587,55.6561595 C64.5406821,55.2735244 64.7658025,54.8529045 64.8198175,54.5079057 L64.8407265,54.4765421 C64.9884836,54.6807536 65.1229983,54.7985411 65.2770281,54.9313134" id="Fill-47" fill="#C8171E" mask="url(#mask-4)"></path>
                <path d="M67.080048,51.7030997 C66.9908362,51.8686294 66.9288061,52.005932 66.823564,52.2115374 C66.5155044,52.1066438 66.1781722,52.0310228 65.797628,51.9588867 C65.4174322,51.8881445 65.1351604,51.8473719 64.98357,51.9135838 C64.8312826,51.9794472 64.7514799,52.1414922 64.6336924,52.3694005 C64.9264187,52.5143697 65.9039155,53.0329135 66.3130354,53.1493071 C66.2189448,53.2977611 66.1217178,53.4646848 66.0321575,53.6284722 C65.9422487,53.792608 65.8645368,53.9490772 65.7948401,54.103107 C65.3303113,53.7504415 64.3556024,53.2277159 64.0478912,53.0614892 C63.5202869,52.7736416 62.5633506,52.230704 62.245882,52.230007 L62.2312456,52.2202495 C62.3911997,51.9393716 62.5096841,51.7208723 62.6626685,51.439646 C62.8390012,51.1162531 62.9644554,50.871966 63.1526366,50.5276641 C63.5411959,49.8143179 64.0214065,49.7993331 64.4556172,50.0356051 C64.9041157,50.2784982 65.1497967,50.7618451 64.9250247,51.3490402 L64.9354793,51.353919 C65.1034484,51.0688593 65.3282204,50.9925414 65.5951589,51.0246019 C65.7795068,51.0469048 65.8352642,51.0552684 66.160051,51.1047531 C66.5792769,51.1688741 67.0880631,51.2546011 67.3417593,51.1859498 L67.3734713,51.203374 C67.2396536,51.4211763 67.1511387,51.5738122 67.080048,51.7030997 M63.2704241,51.096738 C63.1808638,51.2594799 63.1233639,51.3769189 63.0811974,51.4901761 C63.3153785,51.6452514 63.6223926,51.8132205 63.7123014,51.8609628 C63.9416037,51.9860684 64.0698457,52.0630833 64.2834662,52.1808708 C64.3601326,52.0508864 64.4071779,51.9766594 64.458405,51.8836142 C64.6518135,51.5274639 64.630556,51.1953589 64.085876,50.9005417 C63.6272714,50.6503304 63.3923934,50.8691781 63.2704241,51.096738" id="Fill-48" fill="#C8171E" mask="url(#mask-4)"></path>
                <path d="M68.0036692,49.7176834 C67.9196847,49.9253797 67.6837612,50.3975751 67.5290344,50.7181801 C67.3439896,50.6017866 67.1188691,50.4780749 66.8832941,50.3616813 L66.895491,50.3338026 C67.2223688,50.176288 67.517186,49.8919253 67.6722612,49.5092901 C67.8081699,49.1740488 67.7315035,48.8862013 67.4394741,48.7677168 C67.2303839,48.6833837 67.068339,48.7175351 66.8425215,48.8503074 C66.5072802,49.0447613 66.2312811,49.329821 65.847949,49.5312446 C65.4168747,49.7542742 65.1116029,49.7176834 64.7749677,49.5800323 C64.4446051,49.4462146 63.8811069,49.0025948 64.3829235,47.7640837 C64.4773626,47.533039 64.6359227,47.1730553 64.7930888,46.880329 C64.9450277,46.9960256 65.1715421,47.1493584 65.3858596,47.2821307 L65.3750566,47.3114034 C65.1237998,47.3922516 64.9007703,47.5170088 64.724786,47.9505225 C64.5582108,48.3613848 64.7010891,48.6548081 64.9443307,48.752035 C65.2360116,48.8705195 65.4179201,48.8973527 66.0796907,48.3582484 C66.9049001,47.682887 67.1910052,47.7707049 67.537398,47.9135832 C67.955927,48.0819009 68.4737738,48.561066 68.0036692,49.7176834" id="Fill-49" fill="#C8171E" mask="url(#mask-4)"></path>
                <path d="M68.9585843,46.943753 C68.9031754,47.1235706 68.8721604,47.2437975 68.8059485,47.4971452 C68.173102,47.2079037 67.3632259,46.9507227 66.9147273,46.8095868 C66.2742143,46.6109511 65.3960353,46.3116036 64.9524156,46.3760731 L64.9353399,46.3704973 C65.0039911,46.1910282 65.0580061,46.0369984 65.1116726,45.8634535 C65.1646421,45.6906056 65.2144753,45.4982426 65.2730206,45.2884554 C65.7392918,45.5254243 66.8147125,45.8519536 67.0304239,45.9195594 C67.3886652,46.0303772 68.4083285,46.3551641 69.1282959,46.4618001 C69.0355992,46.7186326 68.9920388,46.8360716 68.9585843,46.943753" id="Fill-50" fill="#C8171E" mask="url(#mask-4)"></path>
                <path d="M66.5967708,42.0425387 L66.5894526,42.078781 C66.4964075,42.1997049 66.3239081,42.5966278 66.2130902,43.1029747 C66.335408,43.1294594 67.1208903,43.32008 67.9572512,43.503034 C68.7817637,43.6835485 69.6400791,43.7891391 69.781215,43.7863512 C69.7160485,44.0299413 69.6958365,44.0940623 69.6494881,44.3083798 C69.6087155,44.4913338 69.5794429,44.6241061 69.5480794,44.8541053 C69.0553234,44.6575605 67.9771148,44.4083946 67.5829797,44.3219707 C67.1644508,44.230668 66.4075441,44.0769866 66.0175909,43.9985778 C65.9235003,44.4254703 65.8499702,44.9847867 65.9140912,45.1659982 L65.9067731,45.2011951 C65.7461221,45.1280135 65.5157743,45.0408926 65.3641839,45.0067412 C65.523441,44.4463794 65.6304255,43.98429 65.7436827,43.4664432 C65.8666974,42.9064298 65.9848334,42.3617498 66.0660301,41.7996456 C66.1873024,41.8825847 66.4068472,41.9690087 66.5967708,42.0425387" id="Fill-51" fill="#C8171E" mask="url(#mask-4)"></path>
                <path d="M66.8996728,38.0376942 C67.2101718,38.2798904 67.5318223,38.5095411 68.6762428,39.2357812 C69.06759,39.2636599 69.2808621,39.2793417 69.5662702,39.283872 C69.8342542,39.2852659 70.1677531,39.2845689 70.362207,39.2479781 C70.3273586,39.4710077 70.3165557,39.6201587 70.3043587,39.7888249 C70.2904194,39.9623697 70.2841467,40.0550664 70.2803133,40.3443079 C70.1060715,40.2808839 69.7171637,40.2143235 69.5160886,40.1986417 C69.2313774,40.1784296 69.0128781,40.1435813 68.6222278,40.1136117 C67.6687764,40.5105346 66.8498397,40.9262757 66.6463252,41.0297754 C66.5156438,41.0931994 66.2779779,41.2440928 66.1866752,41.3461986 L66.1640237,41.3427137 C66.1912055,41.1318811 66.212463,40.9290636 66.2284932,40.7164885 C66.244175,40.5042619 66.253584,40.2864596 66.2605537,40.0484452 C66.4090078,40.0536725 66.5605982,40.021612 66.6891887,39.9742182 C67.0077028,39.8599155 67.4474892,39.7250523 68.1437597,39.4138564 L68.1451536,39.3950383 C67.7694882,39.1608572 67.218187,38.8810248 66.895491,38.7325707 C66.7407643,38.6569498 66.5184317,38.5966621 66.3699776,38.5977075 C66.3929775,38.4447232 66.4062199,38.3391326 66.4225986,38.1206333 C66.4347956,37.9578914 66.4462955,37.8035131 66.4403713,37.6592409 C66.5961435,37.8150131 66.8101125,37.9756641 66.8996728,38.0376942" id="Fill-52" fill="#C8171E" mask="url(#mask-4)"></path>
            </g>
        </g>
    </g>
</svg>