<svg xmlns="http://www.w3.org/2000/svg" viewBox="0 0 1333 617" role="img" aria-labelledby="title desc">
  <title id="title">WM-MoE method diagram</title>
  <desc id="desc">A concise method diagram for Weather-Aware Multi-Scale Mixture-of-Experts for blind adverse weather removal.</desc>
  <defs>
    <linearGradient id="bg" x1="0" y1="0" x2="1" y2="1">
      <stop offset="0" stop-color="#07172f"/>
      <stop offset="0.55" stop-color="#0d2f4d"/>
      <stop offset="1" stop-color="#0d3b31"/>
    </linearGradient>
    <linearGradient id="panel" x1="0" y1="0" x2="1" y2="1">
      <stop offset="0" stop-color="#102c55"/>
      <stop offset="1" stop-color="#0f513d"/>
    </linearGradient>
    <linearGradient id="inputGrad" x1="0" y1="0" x2="1" y2="1">
      <stop offset="0" stop-color="#556476"/>
      <stop offset="1" stop-color="#111827"/>
    </linearGradient>
    <linearGradient id="cleanGrad" x1="0" y1="0" x2="1" y2="1">
      <stop offset="0" stop-color="#8be9ff"/>
      <stop offset="0.48" stop-color="#7ddc8f"/>
      <stop offset="1" stop-color="#fff3b0"/>
    </linearGradient>
    <linearGradient id="gold" x1="0" y1="0" x2="1" y2="1">
      <stop offset="0" stop-color="#fff7ad"/>
      <stop offset="1" stop-color="#f59e0b"/>
    </linearGradient>
    <linearGradient id="cyan" x1="0" y1="0" x2="1" y2="1">
      <stop offset="0" stop-color="#a5f3fc"/>
      <stop offset="1" stop-color="#0284c7"/>
    </linearGradient>
    <linearGradient id="green" x1="0" y1="0" x2="1" y2="1">
      <stop offset="0" stop-color="#bbf7d0"/>
      <stop offset="1" stop-color="#10b981"/>
    </linearGradient>
    <filter id="shadow" x="-20%" y="-20%" width="140%" height="140%">
      <feDropShadow dx="0" dy="14" stdDeviation="14" flood-color="#020617" flood-opacity="0.38"/>
    </filter>
    <filter id="glow" x="-30%" y="-30%" width="160%" height="160%">
      <feGaussianBlur stdDeviation="5" result="blur"/>
      <feMerge>
        <feMergeNode in="blur"/>
        <feMergeNode in="SourceGraphic"/>
      </feMerge>
    </filter>
    <marker id="arrowGold" markerWidth="18" markerHeight="18" refX="14" refY="9" orient="auto">
      <path d="M0,0 L18,9 L0,18 Z" fill="#fbbf24"/>
    </marker>
    <marker id="arrowGreen" markerWidth="18" markerHeight="18" refX="14" refY="9" orient="auto">
      <path d="M0,0 L18,9 L0,18 Z" fill="#34d399"/>
    </marker>
  </defs>

  <rect width="1333" height="617" rx="34" fill="url(#bg)"/>
  <g opacity="0.13" stroke="#e0f2fe" stroke-width="1">
    <path d="M0 105 H1333"/><path d="M0 210 H1333"/><path d="M0 315 H1333"/><path d="M0 420 H1333"/><path d="M0 525 H1333"/>
    <path d="M120 0 V617"/><path d="M240 0 V617"/><path d="M360 0 V617"/><path d="M480 0 V617"/><path d="M600 0 V617"/>
    <path d="M720 0 V617"/><path d="M840 0 V617"/><path d="M960 0 V617"/><path d="M1080 0 V617"/><path d="M1200 0 V617"/>
  </g>
  <path d="M0 505 C225 430 345 575 525 506 S825 420 1016 500 1190 574 1333 492" fill="none" stroke="#facc15" stroke-width="3" opacity="0.75"/>
  <path d="M0 92 C190 28 330 166 494 92 S750 36 895 117 1125 166 1333 70" fill="none" stroke="#67e8f9" stroke-width="3" opacity="0.72"/>

  <text x="54" y="63" fill="#e0f2fe" font-family="Inter, Arial, sans-serif" font-size="36" font-weight="900">WM-MoE</text>
  <text x="235" y="63" fill="#fef3c7" font-family="Inter, Arial, sans-serif" font-size="25" font-weight="800">Weather-Aware Multi-Scale Mixture-of-Experts</text>
  <text x="56" y="98" fill="#bfdbfe" font-family="Inter, Arial, sans-serif" font-size="18" font-weight="700">Blind adverse weather removal for unknown rain, haze, snow, and mixed weather</text>

  <g transform="translate(48 160)" filter="url(#shadow)">
    <rect width="248" height="270" rx="28" fill="rgba(255,255,255,0.10)" stroke="#7dd3fc" stroke-opacity="0.52"/>
    <text x="124" y="42" text-anchor="middle" fill="#ffffff" font-family="Inter, Arial, sans-serif" font-size="25" font-weight="900">Adverse Input</text>
    <rect x="33" y="70" width="182" height="133" rx="20" fill="url(#inputGrad)" stroke="#dbeafe" stroke-opacity="0.45"/>
    <path d="M35 176 C70 140 100 148 135 112 C164 82 184 91 215 68 V203 H33 Z" fill="#020617" opacity="0.35"/>
    <g stroke="#e0f2fe" stroke-width="5" stroke-linecap="round" opacity="0.92">
      <path d="M61 92 l-25 52"/><path d="M109 86 l-40 87"/><path d="M157 80 l-37 83"/><path d="M201 93 l-34 72"/>
      <path d="M86 164 l-17 35"/><path d="M140 164 l-16 35"/>
    </g>
    <circle cx="181" cy="73" r="18" fill="#f8fafc"/>
    <text x="124" y="238" text-anchor="middle" fill="#dbeafe" font-family="Inter, Arial, sans-serif" font-size="18" font-weight="800">rain · haze · snow · mixed</text>
  </g>

  <path d="M316 300 C360 300 382 300 423 300" stroke="#fbbf24" stroke-width="9" fill="none" marker-end="url(#arrowGold)" filter="url(#glow)"/>

  <g transform="translate(438 128)" filter="url(#shadow)">
    <rect width="458" height="360" rx="34" fill="url(#panel)" stroke="#93c5fd" stroke-opacity="0.50"/>
    <text x="229" y="47" text-anchor="middle" fill="#ffffff" font-family="Inter, Arial, sans-serif" font-size="29" font-weight="900">WM-MoE Core</text>
    <text x="229" y="78" text-anchor="middle" fill="#bae6fd" font-family="Inter, Arial, sans-serif" font-size="18" font-weight="700">dynamic routing + multi-scale restoration</text>

    <rect x="38" y="112" width="172" height="88" rx="22" fill="rgba(250,204,21,0.18)" stroke="#fde68a" stroke-opacity="0.70"/>
    <text x="124" y="145" text-anchor="middle" fill="#fef3c7" font-family="Inter, Arial, sans-serif" font-size="20" font-weight="900">Weather-Aware</text>
    <text x="124" y="172" text-anchor="middle" fill="#fef3c7" font-family="Inter, Arial, sans-serif" font-size="20" font-weight="900">Router</text>
    <text x="124" y="192" text-anchor="middle" fill="#fde68a" font-family="Inter, Arial, sans-serif" font-size="13" font-weight="800">Top-K expert assignment</text>

    <rect x="247" y="112" width="172" height="88" rx="22" fill="rgba(14,165,233,0.18)" stroke="#7dd3fc" stroke-opacity="0.72"/>
    <text x="333" y="145" text-anchor="middle" fill="#e0f2fe" font-family="Inter, Arial, sans-serif" font-size="20" font-weight="900">WGF-CL</text>
    <text x="333" y="172" text-anchor="middle" fill="#e0f2fe" font-family="Inter, Arial, sans-serif" font-size="18" font-weight="900">Weather Guidance</text>
    <text x="333" y="192" text-anchor="middle" fill="#bae6fd" font-family="Inter, Arial, sans-serif" font-size="13" font-weight="800">decouple weather / content</text>

    <rect x="38" y="236" width="381" height="86" rx="24" fill="rgba(16,185,129,0.16)" stroke="#86efac" stroke-opacity="0.72"/>
    <text x="229" y="270" text-anchor="middle" fill="#dcfce7" font-family="Inter, Arial, sans-serif" font-size="24" font-weight="900">Multi-Scale Experts</text>
    <text x="229" y="300" text-anchor="middle" fill="#bbf7d0" font-family="Inter, Arial, sans-serif" font-size="16" font-weight="800">local detail · structure · long-range context</text>

    <path d="M210 156 H238" stroke="#fbbf24" stroke-width="5" marker-end="url(#arrowGold)"/>
    <path d="M124 203 C125 224 152 232 178 238" stroke="#fbbf24" stroke-width="5" fill="none" marker-end="url(#arrowGold)"/>
    <path d="M333 203 C332 224 306 232 280 238" stroke="#38bdf8" stroke-width="5" fill="none" marker-end="url(#arrowGold)"/>
  </g>

  <path d="M913 300 C955 300 983 300 1024 300" stroke="#34d399" stroke-width="9" fill="none" marker-end="url(#arrowGreen)" filter="url(#glow)"/>

  <g transform="translate(1042 160)" filter="url(#shadow)">
    <rect width="242" height="270" rx="28" fill="rgba(255,255,255,0.12)" stroke="#86efac" stroke-opacity="0.58"/>
    <text x="121" y="42" text-anchor="middle" fill="#ffffff" font-family="Inter, Arial, sans-serif" font-size="25" font-weight="900">Restored Image</text>
    <rect x="34" y="70" width="174" height="133" rx="20" fill="url(#cleanGrad)" stroke="#ecfccb" stroke-opacity="0.62"/>
    <path d="M34 170 C75 130 110 145 145 105 C173 74 189 83 208 64 V203 H34 Z" fill="#14532d" opacity="0.32"/>
    <path d="M55 169 H190" stroke="#064e3b" stroke-opacity="0.50" stroke-width="7" stroke-linecap="round"/>
    <circle cx="170" cy="86" r="18" fill="#fef3c7"/>
    <text x="121" y="237" text-anchor="middle" fill="#dcfce7" font-family="Inter, Arial, sans-serif" font-size="18" font-weight="900">cleaner vision input</text>
  </g>

  <g transform="translate(448 520)">
    <rect width="188" height="42" rx="21" fill="rgba(255,255,255,0.10)" stroke="#7dd3fc" stroke-opacity="0.40"/>
    <text x="94" y="27" text-anchor="middle" fill="#e0f2fe" font-family="Inter, Arial, sans-serif" font-size="15" font-weight="900">blind weather setting</text>
  </g>
  <g transform="translate(664 520)">
    <rect width="242" height="42" rx="21" fill="rgba(255,255,255,0.10)" stroke="#fde68a" stroke-opacity="0.42"/>
    <text x="121" y="27" text-anchor="middle" fill="#fef3c7" font-family="Inter, Arial, sans-serif" font-size="15" font-weight="900">weather/content decoupling</text>
  </g>
  <g transform="translate(934 520)">
    <rect width="260" height="42" rx="21" fill="rgba(255,255,255,0.10)" stroke="#86efac" stroke-opacity="0.42"/>
    <text x="130" y="27" text-anchor="middle" fill="#dcfce7" font-family="Inter, Arial, sans-serif" font-size="15" font-weight="900">downstream segmentation benefits</text>
  </g>
</svg>
